<?xml version="1.0" encoding="utf-8"?>
<!-- Generator: Adobe Illustrator 21.0.0, SVG Export Plug-In . SVG Version: 6.00 Build 0)  -->
<svg version="1.1" id="b543c902-2711-464d-9f40-b15eb324e31e"
	 xmlns="http://www.w3.org/2000/svg" xmlns:xlink="http://www.w3.org/1999/xlink" x="0px" y="0px" viewBox="0 0 1038.2 693.3"
	 style="enable-background:new 0 0 1038.2 693.3;" xml:space="preserve">
<style type="text/css">
	.st0{fill:#0D1B56;}
	.st1{opacity:8.000000e-02;fill:#6466AD;enable-background:new    ;}
	.st2{fill:#2187FE;}
	.st3{fill:#FFFFFF;}
	.st4{fill:#39C755;}
	.st5{fill:none;stroke:#FFFFFF;stroke-width:3;stroke-miterlimit:10;}
	.st6{fill:none;stroke:#FFFFFF;stroke-miterlimit:10;}
	.st7{fill:#F18332;}
	.st8{fill:none;stroke:#FFFFFF;stroke-width:5;stroke-miterlimit:10;}
	.st9{fill:none;stroke:#F18332;stroke-width:5;stroke-miterlimit:10;}
	.st10{enable-background:new    ;}
	.st11{fill:none;}
	.st12{fill-rule:evenodd;clip-rule:evenodd;fill:#FFFFFF;}
	.st13{fill:#0ACF83;}
	.st14{fill:#A259FF;}
	.st15{fill:#F24E1E;}
	.st16{fill:#FF7262;}
	.st17{fill:#1ABCFE;}
	.st18{font-family:'ProximaNova-Extrabld';}
	.st19{font-size:38.2121px;}
	.st20{font-family:'MyriadPro-Regular';}
	.st21{font-size:20.55px;}
	.st22{font-family:'Roboto-Medium';}
	.st23{font-size:14.6034px;}
	.st24{font-family:'Roboto-Regular';}
	.st25{font-size:10.2224px;}
	.st26{font-size:13.1431px;}
	.st27{font-family:'ProximaNova-Regular';}
	.st28{font-size:15.8043px;}
	.st29{letter-spacing:3;}
	.st30{font-size:20px;}
	.st31{font-size:16.6667px;}
	.st32{font-family:'ProximaNova-Bold';}
	.st33{font-size:17.9039px;}
	.st34{letter-spacing:1;}
	.st35{font-family:'ProximaNova-Semibold';}
	.st36{font-size:24px;}
</style>
<rect y="-858.9" class="st0" width="1038.9" height="693.3"/>
<path class="st1" d="M572.7-682.7c-51.6-1.6-100.7-16.5-147.6-32.8s-93.4-34.3-143.7-43c-32.4-5.6-69.4-6.3-95.5,9.2
	c-25.1,15-33.2,40.7-37.6,64.7c-3.3,18-5.2,37,3.8,53.8c6.2,11.7,17.3,21.5,25,32.7c26.7,39,7.8,87.1-21.1,125.2
	C142.5-455,126.8-438,116.3-419c-10.5,19-15.3,40.8-6.2,60.2c9.1,19.2,30.7,33.7,54.1,43.8c47.6,20.6,103.6,26.5,158.3,29.9
	c121,7.4,242.6,4.2,363.9,1c44.9-1.2,90-2.4,134.1-8.6c24.5-3.4,49.9-8.9,67.7-22.1c22.6-16.8,28.2-45.2,13.1-66.2
	c-25.4-35.3-95.6-44-113.4-81.9c-9.8-20.8,0.3-44,14.5-63.4c30.5-41.5,81.5-77.8,84.2-125.2c1.8-32.5-22.7-65.1-60.7-80.5
	c-39.8-16.1-95-14.1-124.3,12.6C671.4-691.9,618.3-681.3,572.7-682.7z"/>
<path class="st2" d="M924.1-756.4c-6.6,0-13.1,0-20,0c0-14.4,0-28.2,0-42.3c13.9,0,27.7,0,42.3,0c0,6.7,0,13.3,0,20c0,2.5,0,5,0,7.4
	c0,4.8,0,9.6,0,14.9c-5.5,0-10.2,0-14.9,0C929.1-756.4,926.6-756.4,924.1-756.4z M931.6-764.1c2.4,0,4.7,0,7.2,0c0-2.7,0-4.9,0-7.2
	c0-2.5,0-5,0-7.4c0-4.2,0-8.4,0-12.6c-9.4,0-18.2,0-27.2,0c0,9.2,0,18.1,0,27.3c4.4,0,8.5,0,12.6,0
	C926.6-764.1,929.1-764.1,931.6-764.1z"/>
<path class="st3" d="M944-736.5c-6.6,0-13.1,0-20,0c0-14.4,0-28.2,0-42.3c13.9,0,27.7,0,42.3,0c0,6.7,0,13.3,0,20c0,2.5,0,5,0,7.4
	c0,4.8,0,9.6,0,14.9c-5.5,0-10.2,0-14.9,0C948.9-736.4,946.5-736.5,944-736.5z M951.4-744.1c2.4,0,4.7,0,7.2,0c0-2.7,0-4.9,0-7.2
	c0-2.5,0-5,0-7.4c0-4.2,0-8.4,0-12.6c-9.4,0-18.2,0-27.2,0c0,9.2,0,18.1,0,27.3c4.4,0,8.5,0,12.6,0
	C946.5-744.1,948.9-744.1,951.4-744.1z"/>
<path class="st4" d="M46.5-247.5c4.4,8.2,8.6,16.2,13.1,24.5c-8.3,4.4-16.2,8.7-24.5,13.1c-4.4-8.3-8.6-16.2-13.1-24.5
	C30.3-238.9,38.2-243.1,46.5-247.5z M36.7-215.1c6.2-3.4,11.8-6.4,17.8-9.6c-3.3-6.2-6.4-11.7-9.6-17.7c-6.2,3.3-11.7,6.4-17.7,9.6
	C30.5-226.7,33.4-221.2,36.7-215.1z"/>
<circle class="st5" cx="862.3" cy="-457.1" r="9.2"/>
<circle class="st5" cx="345.7" cy="-512.2" r="13"/>
<circle class="st6" cx="240.3" cy="-842.3" r="13"/>
<circle class="st7" cx="240.3" cy="-842.5" r="8.9"/>
<circle class="st8" cx="272.3" cy="-176.2" r="22"/>
<circle class="st9" cx="286.1" cy="-187.9" r="22"/>
<text transform="matrix(1 0 0 1 188.0729 -561.7214)"><tspan x="0" y="0" class="st3 st18" style="font-size:43.6913px;">The Modern Day Developer;</tspan><tspan x="159" y="52.4" class="st2 st18" style="font-size:43.6913px;">Why and How?</tspan></text>
<g>
	<rect x="495.8" y="-698.6" class="st3" width="82.3" height="22.7"/>
	<g>
		<path d="M502.6-682.7v-9.4h6.4v1.4h-4.8v2.4h4.7v1.4h-4.7v4.1H502.6z"/>
		<path d="M510.5-686.4v-5.7h1.6v5.6c0,0.8,0.2,1.4,0.6,1.8c0.4,0.4,1,0.7,1.8,0.7c0.8,0,1.4-0.2,1.8-0.7c0.4-0.4,0.6-1,0.6-1.8
			v-5.6h1.6v5.7c0,1.2-0.3,2.1-1,2.8c-0.7,0.7-1.7,1-3,1c-1.3,0-2.3-0.3-3-1C510.8-684.3,510.5-685.2,510.5-686.4z"/>
		<path d="M520.6-682.7v-9.4h1.6v7.9h4.1v1.4H520.6z"/>
		<path d="M527.6-684.9c-0.4-0.7-0.6-1.6-0.6-2.5s0.2-1.8,0.6-2.5c0.4-0.7,1-1.3,1.7-1.7c0.7-0.4,1.6-0.6,2.5-0.6
			c0.7,0,1.3,0.1,1.9,0.4c0.6,0.2,1.1,0.6,1.5,1c0.4,0.4,0.7,0.9,1,1.5c0.2,0.6,0.4,1.2,0.4,1.9s-0.1,1.3-0.4,1.9
			c-0.2,0.6-0.6,1.1-1,1.5c-0.4,0.4-0.9,0.8-1.5,1c-0.6,0.2-1.2,0.4-1.9,0.4c-0.9,0-1.8-0.2-2.5-0.6
			C528.6-683.6,528-684.2,527.6-684.9z M528.7-687.4c0,1,0.3,1.8,0.9,2.4c0.6,0.6,1.3,1,2.3,1c0.9,0,1.7-0.3,2.3-1
			c0.6-0.6,0.9-1.5,0.9-2.4c0-1-0.3-1.8-0.9-2.4c-0.6-0.6-1.3-1-2.3-1c-0.9,0-1.7,0.3-2.3,1C529-689.2,528.7-688.4,528.7-687.4z"/>
		<path d="M538.2-682.7v-9.4h1.6v4.5l3.7-4.5h2l-3.8,4.4l4.1,5h-2l-3.2-4l-0.8,1v3H538.2z"/>
		<path d="M546.4-684.9c-0.4-0.7-0.6-1.6-0.6-2.5s0.2-1.8,0.6-2.5c0.4-0.7,1-1.3,1.7-1.7c0.7-0.4,1.6-0.6,2.5-0.6
			c0.7,0,1.3,0.1,1.9,0.4c0.6,0.2,1.1,0.6,1.5,1c0.4,0.4,0.7,0.9,1,1.5c0.2,0.6,0.4,1.2,0.4,1.9s-0.1,1.3-0.4,1.9
			c-0.2,0.6-0.6,1.1-1,1.5c-0.4,0.4-0.9,0.8-1.5,1c-0.6,0.2-1.2,0.4-1.9,0.4c-0.9,0-1.8-0.2-2.5-0.6
			C547.4-683.6,546.8-684.2,546.4-684.9z M547.5-687.4c0,1,0.3,1.8,0.9,2.4c0.6,0.6,1.3,1,2.3,1c0.9,0,1.7-0.3,2.3-1
			c0.6-0.6,0.9-1.5,0.9-2.4c0-1-0.3-1.8-0.9-2.4c-0.6-0.6-1.3-1-2.3-1c-0.9,0-1.7,0.3-2.3,1C547.8-689.2,547.5-688.4,547.5-687.4z"
			/>
		<path d="M555.8-683.5l0.8-1.2c0.5,0.5,1,0.8,1.6,0.8c0.5,0,0.9-0.2,1.2-0.5c0.3-0.3,0.4-0.7,0.4-1.2v-6.4h1.6v6.4
			c0,1-0.3,1.8-0.9,2.3c-0.6,0.5-1.3,0.8-2.3,0.8C557.3-682.6,556.5-682.9,555.8-683.5z"/>
		<path d="M562.1-682.7l3.7-9.4h2.1l3.7,9.4h-1.9l-0.7-1.8h-4.3l-0.7,1.8H562.1z M565.1-686h3.4l-1.7-4.5L565.1-686z"/>
	</g>
	<rect x="495.8" y="-768.4" class="st3" width="1.5" height="63.1"/>
	<g class="st10">
		<path class="st3" d="M505.9-754v-12.8h3.3v12.8H505.9z"/>
		<path class="st3" d="M520.2-754l-5.4-7.4v7.4h-3.3v-12.8h3.4l5.2,7v-7h3.3v12.8H520.2z"/>
		<path class="st3" d="M525.1-760.3c0-4.1,3.1-6.6,6.9-6.6c2.9,0,4.6,1.5,5.5,3.1l-2.8,1.4c-0.5-0.8-1.5-1.6-2.7-1.6
			c-2.1,0-3.6,1.6-3.6,3.7c0,2.1,1.5,3.7,3.6,3.7c0.9,0,1.9-0.4,2.4-0.8v-1h-2.9v-2.9h6.2v5.1c-1.4,1.5-3.2,2.5-5.7,2.5
			C528.2-753.7,525.1-756.3,525.1-760.3z"/>
		<path class="st3" d="M546.7-754l-2.1-4.3h-1.7v4.3h-3.3v-12.8h6.4c2.8,0,4.5,1.9,4.5,4.3c0,2.2-1.4,3.4-2.6,3.8l2.6,4.7H546.7z
			 M547.1-762.5c0-0.9-0.7-1.4-1.6-1.4h-2.6v2.7h2.6C546.3-761.1,547.1-761.6,547.1-762.5z"/>
		<path class="st3" d="M552.3-754v-12.8h9.4v2.9h-6.1v2h5.9v2.9h-5.9v2.2h6.1v2.9H552.3z"/>
		<path class="st3" d="M562.6-755.8l1.7-2.5c0.9,0.9,2.3,1.7,4.1,1.7c1.1,0,1.8-0.4,1.8-1.1c0-1.7-7.3-0.3-7.3-5.3
			c0-2.1,1.8-4.1,5.1-4.1c2.1,0,3.8,0.6,5.2,1.8l-1.8,2.4c-1.1-0.9-2.5-1.3-3.7-1.3c-1,0-1.4,0.4-1.4,0.9c0,1.6,7.2,0.4,7.2,5.2
			c0,2.6-1.9,4.3-5.3,4.3C565.7-753.7,563.9-754.5,562.6-755.8z"/>
		<path class="st3" d="M574.3-755.8l1.7-2.5c0.9,0.9,2.3,1.7,4.1,1.7c1.1,0,1.8-0.4,1.8-1.1c0-1.7-7.3-0.3-7.3-5.3
			c0-2.1,1.8-4.1,5.1-4.1c2.1,0,3.8,0.6,5.2,1.8l-1.8,2.4c-1.1-0.9-2.5-1.3-3.7-1.3c-1,0-1.4,0.4-1.4,0.9c0,1.6,7.2,0.4,7.2,5.2
			c0,2.6-1.9,4.3-5.3,4.3C577.3-753.7,575.5-754.5,574.3-755.8z"/>
		<path class="st3" d="M586.8-754v-12.8h3.3v12.8H586.8z"/>
		<path class="st3" d="M595.9-754l-4.8-12.8h3.7l3.1,9.2l3.2-9.2h3.7L600-754H595.9z"/>
		<path class="st3" d="M605.8-754v-12.8h9.4v2.9h-6.1v2h5.9v2.9h-5.9v2.2h6.1v2.9H605.8z"/>
	</g>
	<g class="st10">
		<path class="st3" d="M505.3-737.3c0-4,3-6.6,6.9-6.6c3.1,0,4.7,1.7,5.6,3.4l-2.8,1.3c-0.4-1-1.5-1.9-2.7-1.9
			c-2.1,0-3.6,1.6-3.6,3.7c0,2.1,1.5,3.7,3.6,3.7c1.2,0,2.3-0.8,2.7-1.9l2.8,1.3c-0.8,1.6-2.5,3.4-5.6,3.4
			C508.3-730.7,505.3-733.4,505.3-737.3z"/>
		<path class="st3" d="M527.7-730.9l-0.6-1.8h-5l-0.6,1.8h-3.7l4.8-12.8h4.1l4.8,12.8H527.7z M524.6-740.5l-1.6,4.8h3.3L524.6-740.5
			z"/>
		<path class="st3" d="M543.6-730.9v-8.3l-3.2,8.3h-1.5l-3.2-8.3v8.3h-3.3v-12.8h4.6l2.7,6.9l2.7-6.9h4.6v12.8H543.6z"/>
		<path class="st3" d="M549.2-730.9v-12.8h6.4c2.9,0,4.5,1.9,4.5,4.3c0,2.3-1.6,4.2-4.5,4.2h-3.1v4.3H549.2z M556.7-739.5
			c0-0.9-0.7-1.4-1.5-1.4h-2.7v2.7h2.7C556.1-738.1,556.7-738.6,556.7-739.5z"/>
		<path class="st3" d="M561.6-736.1v-7.6h3.4v7.5c0,1.5,0.9,2.6,2.7,2.6c1.8,0,2.7-1.1,2.7-2.6v-7.5h3.3v7.6c0,3.2-1.9,5.4-6,5.4
			C563.5-730.7,561.6-733,561.6-736.1z"/>
		<path class="st3" d="M575-732.7l1.7-2.5c0.9,0.9,2.3,1.7,4.1,1.7c1.1,0,1.8-0.4,1.8-1.1c0-1.7-7.3-0.3-7.3-5.3
			c0-2.1,1.8-4.1,5.1-4.1c2.1,0,3.8,0.6,5.2,1.8l-1.8,2.4c-1.1-0.9-2.5-1.3-3.7-1.3c-1,0-1.4,0.4-1.4,0.9c0,1.6,7.2,0.4,7.2,5.2
			c0,2.6-1.9,4.3-5.3,4.3C578.1-730.7,576.3-731.5,575-732.7z"/>
	</g>
	<g class="st10">
		<path class="st3" d="M514.6-707.9l-0.6-1.8h-5l-0.6,1.8h-3.7l4.8-12.8h4.1l4.8,12.8H514.6z M511.4-717.4l-1.6,4.8h3.3L511.4-717.4
			z"/>
		<path class="st3" d="M530.5-707.9v-8.3l-3.2,8.3h-1.5l-3.2-8.3v8.3h-3.3v-12.8h4.6l2.7,6.9l2.7-6.9h4.6v12.8H530.5z"/>
		<path class="st3" d="M536.1-707.9v-12.8h7.3c2.5,0,3.7,1.6,3.7,3.3c0,1.6-1,2.7-2.2,2.9c1.4,0.2,2.4,1.5,2.4,3.1
			c0,1.9-1.2,3.5-3.8,3.5H536.1z M543.7-716.9c0-0.6-0.5-1.1-1.1-1.1h-3.2v2.1h3.2C543.3-715.8,543.7-716.2,543.7-716.9z M544-711.8
			c0-0.6-0.5-1.2-1.3-1.2h-3.3v2.3h3.3C543.5-710.7,544-711.2,544-711.8z"/>
		<path class="st3" d="M557.8-707.9l-0.6-1.8h-5l-0.6,1.8h-3.7l4.8-12.8h4.1l4.8,12.8H557.8z M554.7-717.4l-1.6,4.8h3.3L554.7-717.4
			z"/>
		<path class="st3" d="M561.5-709.7l1.7-2.5c0.9,0.9,2.3,1.7,4.1,1.7c1.1,0,1.8-0.4,1.8-1.1c0-1.7-7.3-0.3-7.3-5.3
			c0-2.1,1.8-4.1,5.1-4.1c2.1,0,3.8,0.6,5.2,1.8l-1.8,2.4c-1.1-0.9-2.5-1.3-3.7-1.3c-1,0-1.4,0.4-1.4,0.9c0,1.6,7.2,0.4,7.2,5.2
			c0,2.6-1.9,4.3-5.3,4.3C564.6-707.7,562.8-708.5,561.5-709.7z"/>
		<path class="st3" d="M573.1-709.7l1.7-2.5c0.9,0.9,2.3,1.7,4.1,1.7c1.1,0,1.8-0.4,1.8-1.1c0-1.7-7.3-0.3-7.3-5.3
			c0-2.1,1.8-4.1,5.1-4.1c2.1,0,3.8,0.6,5.2,1.8l-1.8,2.4c-1.1-0.9-2.5-1.3-3.7-1.3c-1,0-1.4,0.4-1.4,0.9c0,1.6,7.2,0.4,7.2,5.2
			c0,2.6-1.9,4.3-5.3,4.3C576.2-707.7,574.4-708.5,573.1-709.7z"/>
		<path class="st3" d="M594.2-707.9l-0.6-1.8h-5l-0.6,1.8h-3.7l4.8-12.8h4.1l4.8,12.8H594.2z M591-717.4l-1.6,4.8h3.3L591-717.4z"/>
		<path class="st3" d="M598.9-707.9v-12.8h5.4c4,0,6.9,2.4,6.9,6.4c0,4-2.9,6.4-6.9,6.4H598.9z M607.8-714.3c0-2-1.2-3.5-3.5-3.5
			h-2.1v7h2.1C606.5-710.8,607.8-712.4,607.8-714.3z"/>
		<path class="st3" d="M612.2-714.3c0-3.9,2.9-6.6,6.8-6.6c3.9,0,6.8,2.7,6.8,6.6c0,3.9-2.9,6.6-6.8,6.6
			C615.1-707.7,612.2-710.4,612.2-714.3z M622.5-714.3c0-2.1-1.4-3.7-3.5-3.7c-2.1,0-3.5,1.6-3.5,3.7c0,2.1,1.4,3.7,3.5,3.7
			C621.1-710.6,622.5-712.2,622.5-714.3z"/>
		<path class="st3" d="M634.6-707.9l-2.1-4.3h-1.7v4.3h-3.3v-12.8h6.4c2.8,0,4.5,1.9,4.5,4.3c0,2.2-1.4,3.4-2.6,3.8l2.6,4.7H634.6z
			 M635-716.5c0-0.9-0.7-1.4-1.6-1.4h-2.6v2.7h2.6C634.3-715.1,635-715.6,635-716.5z"/>
		<path class="st3" d="M639.3-709.7l1.7-2.5c0.9,0.9,2.3,1.7,4.1,1.7c1.1,0,1.8-0.4,1.8-1.1c0-1.7-7.3-0.3-7.3-5.3
			c0-2.1,1.8-4.1,5.1-4.1c2.1,0,3.8,0.6,5.2,1.8l-1.8,2.4c-1.1-0.9-2.5-1.3-3.7-1.3c-1,0-1.4,0.4-1.4,0.9c0,1.6,7.2,0.4,7.2,5.2
			c0,2.6-1.9,4.3-5.3,4.3C642.3-707.7,640.5-708.5,639.3-709.7z"/>
	</g>
	<path class="st3" d="M388-763.2c1.1-0.2,2.2-0.4,3.4-0.6c3.9-0.7,7.8-1.5,11.8-2.2c4.4-0.8,8.8-1.7,13.2-2.5
		c5.9-1.2,11.9-2.3,17.8-3.5c2.7-0.6,5.4-0.5,8.1,0.1c5.8,1.1,11.6,2.2,17.4,3.3c6.4,1.2,12.9,2.5,19.3,3.7c2.7,0.5,5.3,1,7.9,1.6
		c0.6,0.1,1.2,0.4,1.7,1c-0.3,0.1-0.6,0.2-0.8,0.2c-5.9,1.5-11.7,3-17.6,4.5c-5.6,1.5-11.2,2.9-16.8,4.4c-4,1-8,2-12,3
		c-2.5,0.6-5.1,0.4-7.6-0.2c-4.4-1.1-8.8-2.2-13.1-3.4c-6.7-1.7-13.5-3.5-20.2-5.2c-3.5-0.9-7-1.8-10.5-2.7c-0.5-0.1-1-0.4-1.4-0.6
		c-0.2-0.1-0.4-0.3-0.6-0.5C388-763.1,388-763.2,388-763.2z"/>
	<path class="st3" d="M477.5-758.5c0,0.2,0.1,0.3,0.1,0.5c0.3,4,0.3,7.9,0.1,11.9c0,1,0,1.9,0.2,2.9c0.1,0.8,0.5,1.6,1.2,2.1
		c0.4,0.3,0.5,0.8,0.3,1.3c-0.2,0.6-0.4,1.3-0.7,1.9c-0.5,1.1-0.6,2.2-0.3,3.4c0.8,3.2,1.6,6.4,2.4,9.6c0,0.1,0,0.2,0.1,0.4
		c-0.8,0-1.6,0.1-2.4,0.1c-1.4,0-2.8,0-4.2,0c-0.2,0-0.3,0-0.5-0.1c-0.6-0.1-0.8-0.4-0.8-1c0.2-1.4,0.5-2.8,0.8-4.2
		c0.4-1.7,0.9-3.3,1.2-5c0.3-1.4,0.1-2.9-0.5-4.2c-0.3-0.6-0.2-1.2,0.1-1.7c0.3-0.6,0.7-1.2,1-1.8c0.2-0.5,0.4-1.1,0.4-1.6
		c0-3.8,0-7.6,0-11.5c0-0.8,0.1-1.5,0.5-2.2C476.6-758.2,477-758.5,477.5-758.5z"/>
	<g>
		<path class="st11" d="M459.8-711.3c-0.6,0.7-1.2,1.2-1.8,1.8c-0.7,0.6-1.4,1.2-2.1,1.8c-0.7,0.5-1.4,1-2.2,1.5
			c-0.1,0.1-0.2,0.1-0.2,0.3c0.1,0,0.2,0.1,0.3,0.1c0.6,0.1,1.2,0.1,1.8-0.2c0.2-0.1,0.5-0.2,0.7-0.4c0.7-0.5,1.3-1,1.8-1.7
			c0.8-1,1.5-2.2,2-3.4c0,0,0-0.1,0-0.2C460-711.5,459.9-711.4,459.8-711.3z"/>
		<path class="st11" d="M458.3-710.8c0.5-0.6,1-1.1,1.5-1.7c0-0.1,0.1-0.1,0-0.2c-0.1,0.1-0.2,0.1-0.4,0.2c-1.4,0.6-2.8,1-4.3,1.1
			c-1.1,0.1-2.1,0-3.2-0.3c-0.1,0-0.2,0-0.3,0c-0.1,0.1-0.2,0.2-0.3,0.3c-0.8,0.6-1.9,0.2-2.1-0.6c0-0.1-0.1-0.3-0.1-0.5
			c-0.9-0.6-1.8-1-2.7-1.6c0,0-0.1,0-0.1,0c0,0.1,0,0.1,0,0.2c0,0.2,0.1,0.3,0.2,0.5c0.2,0.6,0.5,1.1,0.8,1.7c1,1.6,2.1,3.1,3.5,4.5
			c0.5,0.5,1,0.9,1.7,1.2c0.1,0,0.2-0.1,0.2-0.1C454.7-707.5,456.6-709,458.3-710.8z"/>
		<path class="st11" d="M448.1-741.5L448.1-741.5C448.1-741.5,448.1-741.5,448.1-741.5z"/>
		<path class="st11" d="M452.2-745.3c-1.1,1.3-2,2.6-3,4c-0.1,0.1-0.1,0.2-0.2,0.3c-0.1,0.1-0.1,0.3-0.1,0.4c0,0.2,0.1,0.3,0.3,0.3
			c0.8-0.7,1.6-1.5,2.4-2.2c0.3-0.3,0.5-0.5,0.8-0.8c0-0.1,0-0.1,0-0.1c0-0.1,0-0.2,0-0.4c-0.1-0.8,0.5-1.5,1.3-1.5
			c0.2,0,0.5,0.1,0.8,0.1c1.6-1,3.2-2.1,4.8-3.2c0,0,0.1-0.1,0.1-0.1c-0.5-0.5-1-0.9-1.5-1.4c-0.1-0.1-0.2-0.1-0.3-0.1
			c-0.1,0-0.2,0.1-0.3,0.1c-0.5,0.3-1,0.6-1.5,0.9C454.5-747.8,453.3-746.6,452.2-745.3z"/>
		<path class="st11" d="M460.3-748.5c0.4-0.1,0.8-0.1,1.2-0.3c-0.4-0.7-1-1.2-1.7-1.3c-0.3-0.1-0.5-0.1-0.8,0c-0.1,0-0.2,0-0.2,0.2
			c0.4,0.4,0.8,0.9,1.2,1.4C460-748.5,460.1-748.5,460.3-748.5z"/>
		<path class="st11" d="M462.9-744.5c0,0,0.1,0.1,0.1,0.1c0.1-0.3,0-0.6-0.1-0.9c-0.1-0.5-0.2-1-0.4-1.5c-0.2-0.4-0.4-0.9-0.6-1.3
			c-0.6,0-0.9,0-1.3,0.2C461.4-746.7,462.2-745.6,462.9-744.5z"/>
		<path class="st11" d="M427.8-748.1c0.1-0.1,0.2-0.2,0.4-0.3c0.1,0,0.1,0.1,0.2,0.1c0.5,0.3,1.1,0.4,1.7,0.2c0.3-0.1,0.7-0.2,1-0.3
			c0.2-0.1,0.4-0.1,0.7-0.1c0.6,0,1.3,0,1.9,0c0.4,0,0.9,0,1.3-0.2c0.2,0.1,0.3,0.2,0.5,0.2c0.1,0,0.1,0,0.2,0.1
			c0,0.2-0.1,0.4-0.1,0.5c0,0.2,0,0.4,0,0.6c-0.1,0.2-0.3,0.3-0.3,0.5c0.1,0.2,0.2,0.2,0.4,0.3c0.3,0.1,0.5,0.2,0.8,0.3
			c0.3,0.1,0.7,0.2,1.1,0.3c0,0.3,0.2,0.5,0.4,0.6c0.1,0,0.1,0.1,0.2,0.1c0.3,0,0.5,0.2,0.8,0.3c0.1,0,0.2,0.1,0.4,0.1
			c0.2,0,0.3-0.1,0.3-0.3c0-0.2,0-0.4,0-0.6c0.6-0.5,0.5-0.4,1.1-0.4c0.1,0,0.3,0,0.4,0.1c0.1,0.1,0.2,0.1,0.3,0.1
			c0.7,0.2,1.4,0.4,2.2,0.5c0.3,0.1,0.7,0.1,1-0.1c0.1-0.1,0.2-0.1,0.3-0.1c0.4,0,0.8,0,1.2,0c0.1,0,0.3,0,0.4,0.2
			c0.1,0.2,0.3,0.5,0.5,0.7c0,0.1,0.1,0.2,0.1,0.3c0,0.3-0.1,0.5-0.2,0.8c-0.1,0.3-0.1,0.5,0.1,0.7c0.2,0.3,0.4,0.6,0.6,0.9
			c0.2,0.2,0.3,0.4,0.4,0.7c0,0.1,0,0.1,0.1,0.2l0,0c0,0.1,0.1,0.2,0.2,0.2c0.1-0.1,0.1-0.1,0.2-0.2c0.6-0.8,1.1-1.5,1.7-2.3
			c0.9-1.2,1.9-2.5,3-3.6c1.1-1.2,2.4-2.2,3.8-3c0.1,0,0.1-0.1,0.2-0.2c-0.1-0.1-0.2-0.2-0.3-0.2c-0.5-0.4-1-0.8-1.5-1.2
			c-2.9-2.2-6.1-3.9-9.6-4.9c-1.7-0.5-3.4-0.8-5.2-0.9c-1.6-0.1-3.2-0.1-4.8,0.1c-1,0.1-2,0.2-3,0.4c-2.1,0.4-4.1,1.1-6,2
			c-1.6,0.7-3.1,1.7-4.6,2.7c-0.9,0.7-1.8,1.4-2.6,2.1c-0.1,0.1-0.2,0.1-0.1,0.2c0,0,0,0,0,0c0,0,0.1,0,0.1,0.1
			c1.4,0.3,2.8,0.9,4,1.6c0.7,0.4,1.4,0.9,2.1,1.3c0.2,0.1,0.3,0.2,0.5,0.3c0.1,0,0.2-0.1,0.3-0.1
			C427-747.3,427.5-747.6,427.8-748.1z"/>
		<path class="st11" d="M444.1-712.6c-0.3,0.3-0.7,0.4-1,0.6c-0.7,0.2-1.4,0.4-2.1,0.4c-0.3,0-0.7,0-1,0.1c-0.1,0-0.3,0-0.4,0
			c-0.1,0-0.2-0.1-0.4-0.1c-0.1,0-0.2,0-0.3-0.1c-0.1-0.2-0.1-0.3-0.1-0.4c0-0.1,0-0.2,0-0.3c0.1-0.2,0-0.4-0.1-0.6
			c-0.2-0.3-0.4-0.6-0.6-0.8c-0.2-0.2-0.4-0.5-0.6-0.8c-0.1-0.1-0.1-0.2-0.1-0.3c-0.1-0.5-0.3-0.9-0.3-1.4c0-0.1-0.1-0.3-0.1-0.4
			c-0.1-0.2-0.2-0.5-0.4-0.7c-0.2-0.4-0.5-0.7-0.7-1.1c-0.1-0.1-0.2-0.2-0.2-0.4c0-0.3,0-0.7,0.1-1c0.1-0.6,0.4-1.1,0.7-1.5
			c0-0.1,0.1-0.1,0.1-0.2c0.1-0.3,0.1-0.7,0-1c-0.1-0.2-0.2-0.4-0.2-0.7c0-0.1,0-0.1,0-0.2c-0.1-0.4-0.2-0.7-0.3-1
			c-0.1-0.4-0.3-0.8-0.6-1.1c-0.2-0.3-0.5-0.5-0.7-0.8c-0.1-0.1-0.2-0.2-0.3-0.3c-0.3-0.3-0.5-0.7-0.3-1.1c0.1-0.2,0.2-0.4,0.1-0.7
			c0-0.2,0.2-0.4,0.2-0.6c0,0,0-0.1,0-0.1c0.1-0.3,0-0.6-0.2-0.8c-0.1,0-0.1-0.1-0.1-0.1c-0.1-0.1-0.2-0.1-0.3-0.1
			c-0.2,0-0.4,0-0.6,0s-0.4,0-0.6,0c-0.2,0-0.3-0.1-0.4-0.2c-0.1-0.1-0.1-0.2-0.2-0.4c0-0.1-0.1-0.2-0.1-0.3
			c-0.1-0.2-0.3-0.4-0.6-0.4c-0.3,0-0.6,0-0.9,0.1c-0.6,0.1-1.2,0.3-1.7,0.5c-0.1,0-0.2,0.1-0.3,0.1c-0.2,0.1-0.4,0.1-0.6,0
			c-0.2-0.1-0.4-0.1-0.5-0.1c-0.2,0-0.3,0-0.5,0c-0.4,0-0.9,0-1.3,0.1c-0.1,0-0.3,0-0.4,0c-0.2,0-0.3,0-0.4-0.2
			c-0.1-0.1-0.3-0.3-0.5-0.4c-0.5-0.4-0.9-0.9-1.5-1.3c-0.1-0.1-0.2-0.2-0.2-0.3c-0.3-0.7-0.7-1.3-1-2c-0.1-0.3-0.3-0.6-0.6-0.8
			c-0.1-0.1-0.1-0.1-0.2-0.3c0.2-0.2,0.1-0.4,0.1-0.7c0-0.2,0-0.3,0-0.5c0-0.1,0-0.2,0.1-0.3c0.3-0.5,0.5-1,0.7-1.5
			c0.1-0.2,0.1-0.4,0.1-0.7c-0.1-0.2,0.1-0.4,0-0.7c0-0.1-0.1-0.2-0.1-0.3c-0.1-0.1-0.1-0.2,0-0.4c0-0.2,0.1-0.3,0.2-0.5
			c0.2-0.2,0.3-0.4,0.5-0.7c0.2-0.3,0.4-0.6,0.7-0.8c0.1-0.1,0.2-0.2,0.2-0.3c0.1-0.2,0.2-0.3,0.4-0.5c0.1-0.1,0.2-0.2,0.3-0.3
			c0.1-0.1,0.1-0.3-0.1-0.4c-0.1-0.1-0.2-0.1-0.3-0.1c-0.5-0.1-1-0.3-1.4-0.4c-0.3-0.1-0.4,0-0.6,0.2c-0.7,0.9-1.9,0.5-2.3-0.4
			c0-0.1,0-0.1-0.1-0.2c0-0.1-0.1-0.1-0.3-0.1c-0.4,0.1-0.7,0.2-1.1,0.2c-0.6,0.1-1.1,0.3-1.7,0.4c-0.5,0.1-0.9,0.4-1.3,0.9
			c-0.1,0.2-0.3,0.4-0.4,0.6c-0.1,0.2-0.2,0.5-0.4,0.7c-1,1.9-1.7,3.8-2.2,5.8c-0.3,1.3-0.6,2.6-0.7,3.9c-0.1,0.8-0.1,1.7-0.1,2.5
			c0,0.4,0,0.8,0,1.2c0,0.6,0,1.2,0.1,1.8c0.1,1.2,0.3,2.3,0.6,3.5c0.5,2.1,1.1,4,2,5.9c1.4,2.8,3.2,5.3,5.4,7.5
			c1.2,1.2,2.5,2.4,4,3.4c2.5,1.7,5.1,2.9,8,3.8c1.2,0.3,2.3,0.6,3.5,0.8c0.8,0.1,1.5,0.2,2.3,0.3c1.9,0.1,3.7,0.1,5.6-0.2
			c1.4-0.2,2.8-0.5,4.1-0.9c1.6-0.4,3.1-1,4.5-1.8c0.3-0.1,0.5-0.3,0.8-0.5c-0.1-0.1-0.2-0.2-0.3-0.2c-0.8-0.6-1.6-1.4-2.2-2.2
			c-0.9-1.1-1.6-2.2-2.3-3.5c-0.3-0.6-0.6-1.1-0.9-1.7c-0.1-0.2-0.2-0.3-0.4-0.4c0,0-0.1,0-0.1,0
			C444.9-713.2,444.5-712.9,444.1-712.6z"/>
		<path class="st11" d="M465.6-735.4c-0.4-2.3-1.2-4.5-2.2-6.6c-0.8-1.7-1.7-3.2-2.8-4.7c-0.2-0.3-0.5-0.7-0.7-1
			c-0.1,0-0.2,0.1-0.3,0.1c-1.6,0.7-3.1,1.8-4.5,2.9c-0.2,0.1-0.2,0.3-0.2,0.5c0,0.1,0,0.1,0,0.2c0.1,0.6-0.5,1.4-1.3,1.4
			c-0.3,0-0.5-0.1-0.7-0.2c-0.1-0.1-0.3,0-0.4,0.1c0,0-0.1,0.1-0.1,0.1c-1,1.1-1.9,2.1-2.9,3.2c-0.1,0.1-0.1,0.2-0.2,0.2
			c0.1,0.2,0.3,0.4,0.4,0.6c0.1,0.1,0.2,0.3,0.3,0.5c0.2,0.4,0.5,0.7,0.9,1c0.5,0.3,0.9,0.7,1.3,1.2c0.1,0.1,0.2,0.2,0.2,0.4
			c0,0.2,0.1,0.3,0.2,0.4c0.1,0.1,0.2,0.2,0.3,0.2c0.4-0.2,0.9-0.3,1.3-0.5c0.5-0.3,1.1-0.4,1.5-0.8c0.3,0.1,0.4,0.1,0.4,0.4
			c0,0.4,0,0.9-0.2,1.3c-0.1,0.4-0.3,0.9-0.4,1.3c-0.1,0.3-0.2,0.6-0.3,0.9c-0.5,1-1.1,1.9-1.9,2.6c-0.1,0.1-0.2,0.2-0.3,0.3
			c-0.1,0.2-0.3,0.3-0.4,0.5c-0.4,0.5-0.7,0.9-1.1,1.4c-0.4,0.6-0.7,1.2-1,1.8c-0.1,0.2-0.1,0.3,0,0.5c0,0.1,0.1,0.1,0.1,0.2
			c-0.2,0.8,0,1.4,0.4,2c-0.2,0.4-0.2,0.8-0.2,1.2c0,0.2,0,0.3,0,0.5c0,0.2-0.1,0.4-0.2,0.6c-0.3,0.4-0.6,0.8-1.1,1
			c-0.1,0-0.2,0.1-0.3,0.2c-0.6,0.4-1.2,0.8-1.7,1.3c0,0.2,0,0.4,0,0.6c0,0.2,0,0.3,0.1,0.5c0.1,0.3-0.1,0.5-0.2,0.8
			c-0.2,0.3-0.4,0.5-0.7,0.6c-0.1,0-0.2,0.1-0.3,0.1c0,0-0.1,0-0.1,0.1l0,0.1c0,0.1-0.1,0.2,0,0.3c0.1,0.2,0.2,0.3,0.3,0.5
			c0.2,0.2,0.5,0.4,0.8,0.5c0.5,0.2,0.9,0.4,1.4,0.6c0.1,0,0.2,0.1,0.3,0.1c0.1-0.1,0.1-0.1,0.2-0.2c0.8-0.6,1.7-0.3,2.1,0.6
			c0,0.1,0.1,0.3,0.1,0.4c0.1,0,0.2,0.1,0.3,0.1c0.1,0,0.3,0.1,0.4,0.1c0.6,0.1,1.1,0.1,1.7,0.1c0.7,0,1.5,0,2.2-0.2
			c1.3-0.3,2.5-0.7,3.6-1.4c1.3-0.8,2.2-1.8,2.9-3.1c0.5-1.1,1-2.2,1.5-3.3c0.5-1.3,0.9-2.7,1.2-4.1c0.2-0.9,0.4-1.8,0.4-2.7
			c0-0.6,0.1-1.3,0.2-1.9c0-1.1,0-2.2,0-3.3C466-733.3,465.8-734.3,465.6-735.4z M456.2-720.5c-0.3,0.5-0.5,1.1-0.6,1.7
			c0,0,0,0.1,0,0.1c-0.3,0.5-0.3,1-0.5,1.5c0,0.1-0.1,0.1-0.1,0.2c0,0.1,0,0.2-0.1,0.4c-0.1,0.2-0.2,0.3-0.3,0.5
			c-0.4,0-0.8,0.1-1.2-0.2c-0.2-0.3-0.2-0.8-0.3-1.2c0-0.2,0-0.3,0.1-0.5c0.1-0.2,0.1-0.3,0.2-0.5c0.1-0.3,0.1-0.6,0-0.9
			c0-0.1,0-0.3,0-0.4c0-0.3,0.2-0.5,0.5-0.6c0.1,0,0.2-0.1,0.3-0.1c0.2-0.1,0.5-0.2,0.6-0.4c0.3-0.4,0.7-0.7,0.9-1.2
			c0.2,0.1,0.3,0.2,0.3,0.4c0.1,0.3,0.1,0.6,0.2,0.9C456.2-720.7,456.2-720.6,456.2-720.5z"/>
		<path class="st11" d="M446.6-715.5L446.6-715.5C446.6-715.5,446.6-715.5,446.6-715.5z"/>
		<path class="st11" d="M425.6-745.5c0.1-0.3,0.2-0.5,0.2-0.8c-0.1-0.1-0.2-0.2-0.4-0.3c-0.6-0.4-1.2-0.8-1.8-1.2
			c-0.9-0.6-1.8-1-2.9-1.3c-0.7-0.2-1.3-0.4-2.1-0.4c-0.4,0.3-0.7,0.7-1.1,1.1c-0.7,0.8-1.4,1.7-2,2.6c0,0,0,0.1,0,0.2
			c1.1-0.2,2.2-0.3,3.3-0.5c0.1-0.1,0.2-0.2,0.2-0.3c0.4-0.5,1-0.6,1.6-0.4c0.3,0.1,0.6,0.4,0.7,0.7c0.1,0.2,0.2,0.4,0.5,0.4
			c0.9,0.3,1.7,0.6,2.6,0.8c0.1,0,0.2,0.1,0.4,0.1c0.2,0,0.3,0,0.4-0.1l0.1-0.1C425.4-745.1,425.5-745.2,425.6-745.5z"/>
		<path class="st3" d="M466.8-730.6c0-1-0.1-2-0.2-3c-0.1-0.9-0.3-1.8-0.5-2.8c-0.3-1.5-0.8-2.9-1.3-4.3c-0.2-0.5-0.3-1-0.3-1.5
			c0-0.5,0-1,0-1.5c0-0.9,0-1.7-0.1-2.6c-0.1-0.8-0.5-1.5-1.2-2c-0.5-0.3-0.8-0.7-1.2-1.1c-0.9-1.2-2.1-1.7-3.6-1.5
			c-0.1,0-0.3,0-0.5,0c-0.2-0.1-0.3-0.3-0.4-0.4c-1.1-0.9-2.2-1.8-3.3-2.6c-2.8-1.9-5.8-3.2-9-4c-1.8-0.4-3.7-0.7-5.6-0.8
			c-1.5-0.1-3.1,0-4.6,0.2c-1,0.1-2,0.3-3,0.5c-1.6,0.4-3.2,0.9-4.8,1.6c-2.6,1.1-4.9,2.6-7.1,4.4c-0.4,0.4-0.9,0.7-1.3,1.1
			c-0.4,0.3-0.8,0.5-1.2,0.5c-1.3,0.1-2.4,0.6-3.4,1.5c-0.8,0.7-1.3,1.5-1.8,2.4c-1.2,2.3-1.8,4.7-2.2,7.3c-0.1,0.7-0.2,1.4-0.2,2.1
			c-0.1,1.1-0.2,2.2-0.3,3.3c-0.1,1.5-0.1,3.1,0.1,4.6c0.1,0.7,0.1,1.5,0.3,2.2c0.2,1,0.4,1.9,0.6,2.9c0.4,1.7,0.8,3.3,1.5,4.9
			c1.3,3,3,5.8,5.3,8.2c1.4,1.6,3.1,3,4.8,4.2c1.7,1.1,3.4,2.1,5.3,2.9c1.6,0.7,3.3,1.2,5,1.5c0.9,0.2,1.7,0.3,2.6,0.4
			c0.7,0.1,1.3,0.2,2,0.2c1.5,0,3.1,0,4.6-0.2c1.1-0.1,2.2-0.3,3.3-0.6c2-0.5,3.9-1.2,5.7-2.1c0.3-0.1,0.6-0.3,0.9-0.4
			c0.6-0.2,1.2-0.3,1.8-0.1c0.9,0.2,1.8,0.1,2.6-0.4c0.6-0.3,1.1-0.7,1.6-1.2c0.8-0.8,1.5-1.7,2.1-2.6c0.8-1.2,1.4-2.6,1.9-3.9
			c0.4-1,0.8-1.9,1.4-2.9c0.8-1.5,1.5-3,2.1-4.6c0.6-1.7,1-3.3,1.3-5.1c0.1-0.7,0.2-1.4,0.3-2.2
			C466.8-728.8,466.8-729.7,466.8-730.6z M462-747.9c0.2,0.4,0.4,0.8,0.6,1.3c0.2,0.5,0.3,1,0.4,1.5c0,0.3,0.1,0.6,0.1,0.9
			c0,0-0.1-0.1-0.1-0.1c-0.7-1.1-1.5-2.2-2.2-3.3C461.1-747.9,461.4-748,462-747.9z M458.9-750.1c0.3-0.1,0.5,0,0.8,0
			c0.7,0.2,1.3,0.7,1.7,1.3c-0.4,0.1-0.8,0.2-1.2,0.3c-0.1,0-0.2,0-0.3-0.1c-0.4-0.5-0.8-0.9-1.2-1.4
			C458.8-750.1,458.9-750.1,458.9-750.1z M457.5-749.8c0.1,0,0.2,0,0.3,0.1c0.5,0.5,1,0.9,1.5,1.4c0,0-0.1,0.1-0.1,0.1
			c-1.6,1.1-3.3,2.1-4.8,3.2c-0.3,0-0.5-0.1-0.8-0.1c-0.8,0-1.4,0.7-1.3,1.5c0,0.1,0,0.2,0,0.4c0,0,0,0,0,0.1
			c-0.3,0.2-0.5,0.5-0.8,0.8c-0.8,0.7-1.5,1.5-2.4,2.2c-0.2,0-0.3-0.1-0.3-0.3c0-0.2,0-0.3,0.1-0.4c0.1-0.1,0.1-0.2,0.2-0.3
			c1-1.4,1.9-2.7,3-4c1.1-1.3,2.2-2.4,3.5-3.5c0.5-0.4,1-0.6,1.5-0.9C457.3-749.8,457.4-749.8,457.5-749.8z M411.9-742.8
			c0.3-1.3,0.7-2.6,1.4-3.7c0.5-0.8,1.2-1.6,2-2.2c0.5-0.3,1-0.5,1.5-0.7c0.2,0,0.4-0.1,0.6,0c-1.8,2.4-3.7,4.7-5.6,7
			C411.8-742.5,411.9-742.7,411.9-742.8z M452.6-706.3c-0.1,0-0.2,0.1-0.2,0.1c-0.7-0.3-1.2-0.8-1.7-1.2c-1.4-1.3-2.5-2.8-3.5-4.5
			c-0.3-0.5-0.6-1.1-0.8-1.7c-0.1-0.2-0.1-0.3-0.2-0.5c0-0.1,0-0.1,0-0.2c0.1,0,0.1,0,0.1,0c0.9,0.5,1.9,1,2.7,1.6
			c0,0.2,0.1,0.3,0.1,0.5c0.2,0.9,1.4,1.3,2.1,0.6c0.1-0.1,0.2-0.2,0.3-0.3c0.1,0,0.2,0,0.3,0c1.1,0.2,2.1,0.3,3.2,0.3
			c1.5-0.1,2.9-0.4,4.3-1.1c0.1-0.1,0.2-0.1,0.4-0.2c0.1,0.1,0,0.2,0,0.2c-0.5,0.6-1,1.2-1.5,1.7C456.6-709,454.7-707.5,452.6-706.3
			z M460.2-711.5c-0.6,1.2-1.2,2.4-2,3.4c-0.5,0.7-1.1,1.2-1.8,1.7c-0.2,0.1-0.4,0.3-0.7,0.4c-0.6,0.3-1.2,0.3-1.8,0.2
			c-0.1,0-0.2-0.1-0.3-0.1c0-0.2,0.1-0.2,0.2-0.3c0.7-0.5,1.5-1,2.2-1.5c0.7-0.6,1.4-1.2,2.1-1.8c0.6-0.6,1.3-1.2,1.8-1.8
			c0.1-0.1,0.2-0.2,0.4-0.4C460.2-711.6,460.2-711.5,460.2-711.5z M466.1-728.9c0,0.6-0.1,1.3-0.2,1.9c-0.1,0.9-0.2,1.8-0.4,2.7
			c-0.3,1.4-0.7,2.8-1.2,4.1c-0.4,1.1-0.9,2.2-1.5,3.3c-0.6,1.3-1.6,2.3-2.9,3.1c-1.1,0.7-2.3,1.1-3.6,1.4c-0.7,0.1-1.4,0.2-2.2,0.2
			c-0.6,0-1.1,0-1.7-0.1c-0.1,0-0.3-0.1-0.4-0.1c-0.1,0-0.2-0.1-0.3-0.1c0-0.1-0.1-0.3-0.1-0.4c-0.3-0.9-1.3-1.2-2.1-0.6
			c-0.1,0.1-0.1,0.1-0.2,0.2c-0.1,0-0.2-0.1-0.3-0.1c-0.5-0.2-0.9-0.4-1.4-0.6c-0.3-0.1-0.5-0.3-0.8-0.5c-0.1-0.1-0.2-0.3-0.3-0.5
			c0-0.1,0-0.2,0-0.3l-1.4,1.9c0,0,0.1,0,0.1,0c0.2,0.1,0.3,0.2,0.4,0.4c0.3,0.6,0.6,1.1,0.9,1.7c0.7,1.2,1.4,2.4,2.3,3.5
			c0.7,0.8,1.4,1.5,2.2,2.2c0.1,0.1,0.2,0.1,0.3,0.2c-0.3,0.2-0.5,0.4-0.8,0.5c-1.4,0.7-2.9,1.3-4.5,1.8c-1.4,0.4-2.7,0.7-4.1,0.9
			c-1.9,0.3-3.7,0.3-5.6,0.2c-0.8,0-1.6-0.1-2.3-0.3c-1.2-0.2-2.4-0.4-3.5-0.8c-2.9-0.8-5.5-2.1-8-3.8c-1.4-1-2.7-2.1-4-3.4
			c-2.2-2.2-4-4.7-5.4-7.5c-0.9-1.9-1.6-3.9-2-5.9c-0.3-1.2-0.4-2.3-0.6-3.5c-0.1-0.6-0.1-1.2-0.1-1.8c0-0.4-0.1-0.8,0-1.2
			c0.1-0.8,0.1-1.7,0.1-2.5c0.1-1.3,0.4-2.6,0.7-3.9c0.5-2,1.3-4,2.2-5.8c0.1-0.2,0.2-0.5,0.4-0.7c0.1-0.2,0.2-0.4,0.4-0.6
			c0.3-0.4,0.7-0.7,1.3-0.9c0.6-0.1,1.1-0.3,1.7-0.4c0.4-0.1,0.7-0.2,1.1-0.2c0.1,0,0.2,0,0.3,0.1c0,0.1,0,0.1,0.1,0.2
			c0.3,0.9,1.5,1.2,2.3,0.4c0.2-0.2,0.4-0.3,0.6-0.2c0.5,0.2,1,0.3,1.4,0.4c0.1,0,0.2,0.1,0.3,0.1c0.1,0.1,0.2,0.3,0.1,0.4l1.6-0.9
			c-0.1,0.1-0.3,0.1-0.4,0.1c-0.1,0-0.2,0-0.4-0.1c-0.9-0.3-1.7-0.6-2.6-0.8c-0.2-0.1-0.4-0.2-0.5-0.4c-0.1-0.3-0.4-0.6-0.7-0.7
			c-0.5-0.2-1.2-0.1-1.6,0.4c-0.1,0.1-0.1,0.2-0.2,0.3c-1.1,0.2-2.2,0.3-3.3,0.5c0-0.1,0-0.1,0-0.2c0.6-0.9,1.3-1.8,2-2.6
			c0.3-0.4,0.7-0.8,1.1-1.1c0.7,0,1.4,0.2,2.1,0.4c1,0.3,2,0.8,2.9,1.3c0.6,0.4,1.2,0.8,1.8,1.2c0.1,0.1,0.2,0.2,0.4,0.3l0.5-0.6
			c-0.2,0-0.3-0.2-0.5-0.3c-0.7-0.5-1.4-0.9-2.1-1.3c-1.3-0.7-2.6-1.3-4-1.6c0,0-0.1,0-0.1-0.1c0,0,0,0,0,0c0-0.1,0.1-0.2,0.1-0.2
			c0.8-0.8,1.7-1.5,2.6-2.1c1.4-1,3-2,4.6-2.7c1.9-0.9,3.9-1.5,6-2c1-0.2,2-0.3,3-0.4c1.6-0.2,3.2-0.2,4.8-0.1
			c1.8,0.1,3.5,0.4,5.2,0.9c3.5,1,6.7,2.6,9.6,4.9c0.5,0.4,1,0.8,1.5,1.2c0.1,0.1,0.2,0.1,0.3,0.2c-0.1,0.1-0.1,0.1-0.2,0.2
			c-1.4,0.8-2.7,1.9-3.8,3c-1.1,1.1-2,2.3-3,3.6c-0.6,0.8-1.1,1.5-1.7,2.3c0,0.1-0.1,0.1-0.2,0.2c-0.1,0-0.2-0.1-0.2-0.2l1.4,2.3
			c0.1-0.1,0.1-0.2,0.2-0.2c1-1.1,1.9-2.1,2.9-3.2c0,0,0.1-0.1,0.1-0.1c0.1-0.1,0.2-0.1,0.4-0.1c0.2,0.1,0.4,0.2,0.7,0.2
			c0.8,0,1.4-0.8,1.3-1.4c0-0.1,0-0.1,0-0.2c-0.1-0.2,0-0.4,0.2-0.5c1.4-1.1,2.9-2.1,4.5-2.9c0.1,0,0.2-0.1,0.3-0.1
			c0.3,0.3,0.5,0.7,0.7,1c1.1,1.5,2,3,2.8,4.7c1,2.1,1.7,4.3,2.2,6.6c0.2,1.1,0.3,2.1,0.4,3.2C466.1-731.1,466.1-730,466.1-728.9z"
			/>
		<path class="st3" d="M446.7-715.6c0.1,0,0.2-0.1,0.3-0.1c0.3-0.1,0.5-0.3,0.7-0.6c0.2-0.2,0.3-0.5,0.2-0.8c0-0.2,0-0.3-0.1-0.5
			c0-0.2-0.1-0.4,0-0.6c0.5-0.5,1.1-0.9,1.7-1.3c0.1-0.1,0.2-0.1,0.3-0.2c0.5-0.2,0.8-0.6,1.1-1c0.1-0.2,0.2-0.4,0.2-0.6
			c0-0.2,0-0.3,0-0.5c0-0.4,0-0.8,0.2-1.2c-0.4-0.6-0.6-1.3-0.4-2c0-0.1-0.1-0.1-0.1-0.2c-0.1-0.2-0.1-0.3,0-0.5
			c0.3-0.7,0.6-1.3,1-1.8c0.4-0.5,0.7-0.9,1.1-1.4c0.1-0.2,0.3-0.4,0.4-0.5c0.1-0.1,0.2-0.2,0.3-0.3c0.8-0.7,1.4-1.6,1.9-2.6
			c0.1-0.3,0.2-0.6,0.3-0.9c0.1-0.4,0.3-0.9,0.4-1.3c0.1-0.4,0.2-0.9,0.2-1.3c0-0.2,0-0.3-0.4-0.4c-0.4,0.4-1,0.5-1.5,0.8
			c-0.4,0.2-0.8,0.3-1.3,0.5c-0.1-0.1-0.2-0.1-0.3-0.2c-0.1-0.1-0.2-0.3-0.2-0.4c0-0.2-0.1-0.3-0.2-0.4c-0.4-0.5-0.8-0.8-1.3-1.2
			c-0.4-0.3-0.7-0.6-0.9-1c-0.1-0.2-0.2-0.3-0.3-0.5c-0.2-0.2-0.3-0.4-0.4-0.6l-1.4-2.3c0,0,0,0,0,0l0,0l0,0c0,0-0.1-0.1-0.1-0.2
			c-0.1-0.3-0.2-0.5-0.4-0.7c-0.2-0.3-0.4-0.6-0.6-0.9c-0.2-0.2-0.2-0.5-0.1-0.7c0.1-0.2,0.2-0.5,0.2-0.8c0-0.1,0-0.2-0.1-0.3
			c-0.1-0.2-0.3-0.5-0.5-0.7c-0.1-0.1-0.2-0.2-0.4-0.2c-0.4,0.1-0.8,0-1.2,0c-0.1,0-0.2,0-0.3,0.1c-0.3,0.2-0.7,0.2-1,0.1
			c-0.7-0.1-1.5-0.3-2.2-0.5c-0.1,0-0.2-0.1-0.3-0.1c-0.1-0.1-0.2-0.1-0.4-0.1c-0.6,0-0.5-0.1-1.1,0.4c-0.1,0.2,0,0.4,0,0.6
			c0,0.2-0.1,0.3-0.3,0.3c-0.1,0-0.2,0-0.4-0.1c-0.3-0.1-0.5-0.2-0.8-0.3c-0.1,0-0.1,0-0.2-0.1c-0.2-0.1-0.4-0.2-0.4-0.6
			c-0.4-0.1-0.8-0.2-1.1-0.3c-0.3-0.1-0.5-0.2-0.8-0.3c-0.1-0.1-0.3-0.1-0.4-0.3c0-0.2,0.2-0.3,0.3-0.5c0-0.2-0.1-0.4,0-0.6
			c0-0.2,0.1-0.3,0.1-0.5c-0.1,0-0.1-0.1-0.2-0.1c-0.2,0-0.4-0.1-0.5-0.2c-0.4,0.2-0.8,0.2-1.3,0.2c-0.6,0-1.3,0-1.9,0
			c-0.2,0-0.4,0-0.7,0.1c-0.3,0.1-0.7,0.2-1,0.3c-0.6,0.3-1.2,0.2-1.7-0.2c-0.1,0-0.1-0.1-0.2-0.1c-0.2,0-0.3,0.2-0.4,0.3
			c-0.3,0.5-0.8,0.8-1.3,1c-0.1,0-0.2,0.1-0.3,0.1l-0.5,0.6c0,0.3-0.1,0.6-0.2,0.8c-0.1,0.2-0.2,0.4-0.4,0.5l0,0l0,0
			c0,0-0.1,0-0.1,0.1l-1.6,0.9c-0.1,0.1-0.2,0.2-0.3,0.3c-0.2,0.1-0.3,0.3-0.4,0.5c0,0.1-0.1,0.2-0.2,0.3c-0.3,0.2-0.5,0.5-0.7,0.8
			c-0.2,0.2-0.3,0.4-0.5,0.7c-0.1,0.1-0.2,0.3-0.2,0.5c0,0.1,0,0.2,0,0.4c0,0.1,0.1,0.2,0.1,0.3c0.1,0.2-0.1,0.4,0,0.7
			c0.1,0.2,0,0.5-0.1,0.7c-0.2,0.5-0.3,1.1-0.7,1.5c-0.1,0.1-0.1,0.2-0.1,0.3c0,0.2,0,0.3,0,0.5c0,0.2,0.1,0.4-0.1,0.7
			c0.1,0.1,0.2,0.2,0.2,0.3c0.2,0.2,0.4,0.5,0.6,0.8c0.3,0.7,0.7,1.3,1,2c0,0.1,0.1,0.2,0.2,0.3c0.5,0.4,1,0.9,1.5,1.3
			c0.2,0.1,0.3,0.3,0.5,0.4c0.1,0.1,0.3,0.2,0.4,0.2c0.1,0,0.3,0,0.4,0c0.4-0.1,0.9-0.1,1.3-0.1c0.2,0,0.3,0,0.5,0
			c0.2,0,0.4,0,0.5,0.1c0.2,0.1,0.4,0.1,0.6,0c0.1,0,0.2-0.1,0.3-0.1c0.6-0.3,1.1-0.4,1.7-0.5c0.3-0.1,0.6-0.1,0.9-0.1
			c0.3,0,0.5,0.1,0.6,0.4c0,0.1,0.1,0.2,0.1,0.3c0.1,0.1,0.1,0.3,0.2,0.4c0.1,0.1,0.2,0.2,0.4,0.2c0.2,0,0.4,0,0.6,0s0.4,0,0.6,0
			c0.1,0,0.2,0,0.3,0.1c0,0.1,0.1,0.1,0.1,0.1c0.3,0.2,0.3,0.5,0.2,0.8c0,0,0,0.1,0,0.1c0,0.2-0.2,0.4-0.2,0.6
			c0,0.2-0.1,0.4-0.1,0.7c-0.2,0.5,0,0.8,0.3,1.1c0.1,0.1,0.2,0.2,0.3,0.3c0.3,0.3,0.5,0.5,0.7,0.8c0.3,0.3,0.5,0.7,0.6,1.1
			c0.1,0.3,0.3,0.7,0.3,1c0,0.1,0.1,0.1,0,0.2c-0.1,0.3,0.1,0.5,0.2,0.7c0.2,0.3,0.1,0.7,0,1c0,0.1-0.1,0.1-0.1,0.2
			c-0.4,0.4-0.6,1-0.7,1.5c-0.1,0.3-0.1,0.7-0.1,1c0,0.1,0.1,0.3,0.2,0.4c0.2,0.4,0.5,0.7,0.7,1.1c0.1,0.2,0.3,0.4,0.4,0.7
			c0.1,0.1,0.2,0.3,0.1,0.4c0,0.5,0.2,0.9,0.3,1.4c0,0.1,0.1,0.2,0.1,0.3c0.2,0.3,0.4,0.5,0.6,0.8c0.2,0.3,0.4,0.5,0.6,0.8
			c0.1,0.2,0.2,0.4,0.1,0.6c0,0.1,0,0.2,0,0.3c0,0.1,0.1,0.3,0.1,0.4c0.1,0,0.2,0,0.3,0.1c0.1,0,0.2,0.1,0.4,0.1c0.1,0,0.3,0,0.4,0
			c0.3-0.1,0.7-0.1,1-0.1c0.7,0,1.4-0.2,2.1-0.4c0.4-0.1,0.7-0.3,1-0.6c0.4-0.3,0.8-0.6,1.1-1l1.4-1.9
			C446.6-715.5,446.6-715.5,446.7-715.6C446.7-715.6,446.7-715.6,446.7-715.6z"/>
		<path class="st3" d="M456-721.7c0-0.2-0.1-0.3-0.3-0.4c-0.2,0.5-0.6,0.9-0.9,1.2c-0.2,0.2-0.4,0.3-0.6,0.4c-0.1,0-0.2,0.1-0.3,0.1
			c-0.3,0.1-0.4,0.3-0.5,0.6c0,0.1,0,0.3,0,0.4c0.1,0.3,0.1,0.6,0,0.9c0,0.2-0.1,0.3-0.2,0.5c-0.1,0.1-0.1,0.3-0.1,0.5
			c0.1,0.4,0.1,0.8,0.3,1.2c0.4,0.3,0.8,0.1,1.2,0.2c0.1-0.2,0.2-0.4,0.3-0.5c0-0.1,0.1-0.2,0.1-0.4c0-0.1,0-0.1,0.1-0.2
			c0.2-0.5,0.2-1,0.5-1.5c0,0,0-0.1,0-0.1c0.1-0.6,0.3-1.2,0.6-1.7c0-0.1,0.1-0.2,0-0.3C456.1-721.1,456.1-721.4,456-721.7z"/>
	</g>
</g>
<text transform="matrix(1 0 0 1 374.7959 -276.3686)" class="st2 st27 st28 st29">FREE SNACKS + SWAGS</text>
<g>
	<g>
		<g>
			<rect x="331.8" y="-448.4" class="st4" width="81.1" height="27.7"/>
			<text transform="matrix(1 0 0 1 339.1502 -427.4088)" class="st20" style="font-size:24.4896px;">Where</text>
		</g>
		<text transform="matrix(1 0 0 1 299.7073 -394.9352)" class="st3 st22" style="font-size:17.4029px;">School Auditorium</text>
		<text transform="matrix(1 0 0 1 302.1009 -376.5387)"><tspan x="0" y="0" class="st3 st24" style="font-size:12.1821px;">Federal University Lokoja,</tspan><tspan x="41.8" y="15.1" class="st3 st24" style="font-size:12.1821px;">Kogi State</tspan></text>
	</g>
	<g>
		<g>
			<rect x="563.2" y="-448.4" class="st4" width="71.9" height="27.7"/>
			<text transform="matrix(1 0 0 1 569.075 -427.4088)" class="st20" style="font-size:24.4896px;">When</text>
		</g>
		<text transform="matrix(1 0 0 1 530.8641 -394.9352)"><tspan x="0" y="0" class="st3 st22" style="font-size:15.6626px;">Thur, 9th May 2019</tspan><tspan x="36.4" y="21.6" class="st3 st22" style="font-size:15.6626px;">10:00AM</tspan></text>
	</g>
</g>
<text transform="matrix(1 0 0 1 359.4806 -308.5464)"><tspan x="0" y="0" class="st3 st18 st30">RSVP: </tspan><tspan x="62.4" y="0" class="st3 st27 st30">https://bit.ly/icaf-meetup</tspan></text>
<g>
	<text transform="matrix(1 0 0 1 664.4573 -182.2983)" class="st7 st27 st30">Powered by:</text>
	<g>
		<path class="st12" d="M827.8-200.4c-7.1,0-12.8,5.7-12.8,12.8c0,5.7,3.7,10.5,8.8,12.1c0.6,0.1,0.9-0.3,0.9-0.6c0-0.3,0-1.3,0-2.4
			c-3.6,0.8-4.3-1.5-4.3-1.5c-0.6-1.5-1.4-1.9-1.4-1.9c-1.2-0.8,0.1-0.8,0.1-0.8c1.3,0.1,2,1.3,2,1.3c1.1,2,3,1.4,3.7,1.1
			c0.1-0.8,0.4-1.4,0.8-1.7c-2.8-0.3-5.8-1.4-5.8-6.3c0-1.4,0.5-2.5,1.3-3.4c-0.1-0.3-0.6-1.6,0.1-3.4c0,0,1.1-0.3,3.5,1.3
			c1-0.3,2.1-0.4,3.2-0.4c1.1,0,2.2,0.1,3.2,0.4c2.4-1.7,3.5-1.3,3.5-1.3c0.7,1.8,0.3,3.1,0.1,3.4c0.8,0.9,1.3,2,1.3,3.4
			c0,4.9-3,6-5.8,6.3c0.5,0.4,0.9,1.2,0.9,2.4c0,1.7,0,3.1,0,3.5c0,0.3,0.2,0.7,0.9,0.6c5.1-1.7,8.7-6.5,8.7-12.1
			C840.6-194.7,834.9-200.4,827.8-200.4z"/>
		<path class="st3" d="M819.9-182c0,0.1-0.1,0.1-0.2,0c-0.1,0-0.1-0.1-0.1-0.2c0-0.1,0.1-0.1,0.2,0
			C819.8-182.2,819.9-182.1,819.9-182L819.9-182z M819.7-182.1"/>
		<path class="st3" d="M820.4-181.4c-0.1,0.1-0.2,0-0.3-0.1c-0.1-0.1-0.1-0.2,0-0.3c0.1-0.1,0.2,0,0.3,0.1
			C820.4-181.6,820.4-181.5,820.4-181.4L820.4-181.4z M820.3-181.6"/>
		<path class="st3" d="M820.9-180.7c-0.1,0.1-0.2,0-0.3-0.1c-0.1-0.1-0.1-0.3,0-0.3c0.1-0.1,0.2,0,0.3,0.1
			C821-180.9,821-180.8,820.9-180.7L820.9-180.7z M820.9-180.7"/>
		<path class="st3" d="M821.6-180c-0.1,0.1-0.2,0.1-0.3,0c-0.1-0.1-0.1-0.2-0.1-0.3c0.1-0.1,0.2-0.1,0.3,0
			C821.6-180.2,821.7-180.1,821.6-180L821.6-180z M821.6-180"/>
		<path class="st3" d="M822.5-179.6c0,0.1-0.2,0.1-0.3,0.1c-0.1,0-0.2-0.2-0.2-0.3c0-0.1,0.2-0.1,0.3-0.1
			C822.5-179.8,822.6-179.7,822.5-179.6L822.5-179.6z M822.5-179.6"/>
		<path class="st3" d="M823.6-179.5c0,0.1-0.1,0.2-0.3,0.2c-0.2,0-0.3-0.1-0.3-0.2c0-0.1,0.1-0.2,0.3-0.2
			C823.5-179.7,823.6-179.6,823.6-179.5L823.6-179.5z M823.6-179.5"/>
		<path class="st3" d="M824.6-179.7c0,0.1-0.1,0.2-0.2,0.2c-0.1,0-0.3,0-0.3-0.1c0-0.1,0.1-0.2,0.2-0.2
			C824.4-179.8,824.5-179.8,824.6-179.7L824.6-179.7z M824.6-179.7"/>
	</g>
	<g>
		<g>
			<text transform="matrix(1 0 0 1 879.0845 -182.1392)" class="st3 st32 st34" style="font-size:21.4847px;">INGRESSIVE</text>
		</g>
		<g>
			<path class="st3" d="M866.6-192.9L866.6-192.9C866.6-192.9,866.6-192.9,866.6-192.9z"/>
			<path class="st3" d="M865.9-181.5L865.9-181.5C865.9-181.5,865.9-181.5,865.9-181.5z"/>
			<path class="st3" d="M874.8-188.1c0-0.4,0-0.9-0.1-1.3c-0.1-0.4-0.1-0.8-0.2-1.2c-0.1-0.6-0.3-1.3-0.6-1.9
				c-0.1-0.2-0.1-0.4-0.1-0.6c0-0.2,0-0.4,0-0.7c0-0.4,0-0.8-0.1-1.1c-0.1-0.4-0.2-0.7-0.5-0.9c-0.2-0.1-0.4-0.3-0.5-0.5
				c-0.4-0.5-0.9-0.8-1.6-0.7c-0.1,0-0.1,0-0.2,0c-0.1-0.1-0.1-0.1-0.2-0.2c-0.5-0.4-0.9-0.8-1.5-1.1c-1.2-0.8-2.5-1.4-4-1.7
				c-0.8-0.2-1.6-0.3-2.4-0.3c-0.7,0-1.4,0-2,0.1c-0.4,0.1-0.9,0.1-1.3,0.2c-0.7,0.2-1.4,0.4-2.1,0.7c-1.1,0.5-2.2,1.1-3.1,1.9
				c-0.2,0.2-0.4,0.3-0.6,0.5c-0.2,0.1-0.3,0.2-0.5,0.2c-0.6,0.1-1.1,0.3-1.5,0.7c-0.3,0.3-0.6,0.7-0.8,1c-0.5,1-0.8,2.1-1,3.2
				c0,0.3-0.1,0.6-0.1,0.9c0,0.5-0.1,1-0.1,1.4c0,0.7,0,1.3,0,2c0,0.3,0.1,0.7,0.1,1c0.1,0.4,0.2,0.9,0.3,1.3
				c0.2,0.7,0.4,1.5,0.7,2.2c0.6,1.3,1.3,2.5,2.3,3.6c0.6,0.7,1.3,1.3,2.1,1.8c0.7,0.5,1.5,0.9,2.3,1.3c0.7,0.3,1.4,0.5,2.2,0.7
				c0.4,0.1,0.8,0.2,1.2,0.2c0.3,0,0.6,0.1,0.9,0.1c0.7,0,1.3,0,2-0.1c0.5-0.1,1-0.1,1.5-0.3c0.9-0.2,1.7-0.5,2.5-0.9
				c0.1-0.1,0.3-0.1,0.4-0.2c0.3-0.1,0.5-0.1,0.8-0.1c0.4,0.1,0.8,0,1.1-0.2c0.3-0.1,0.5-0.3,0.7-0.5c0.4-0.3,0.7-0.7,0.9-1.2
				c0.3-0.5,0.6-1.1,0.9-1.7c0.2-0.4,0.4-0.9,0.6-1.3c0.4-0.6,0.7-1.3,0.9-2c0.3-0.7,0.5-1.5,0.6-2.2c0-0.3,0.1-0.6,0.1-1
				C874.8-187.3,874.8-187.7,874.8-188.1z M872.7-195.8c0.1,0.2,0.2,0.4,0.3,0.5c0.1,0.2,0.1,0.4,0.2,0.6c0,0.1,0.1,0.3,0,0.4
				c0,0,0,0-0.1,0c-0.3-0.5-0.7-1-1-1.5C872.3-195.8,872.4-195.8,872.7-195.8z M871.3-196.7c0.1,0,0.2,0,0.4,0
				c0.3,0.1,0.6,0.3,0.7,0.6c-0.2,0.1-0.3,0.1-0.5,0.1c0,0-0.1,0-0.1,0C871.6-196.2,871.4-196.4,871.3-196.7
				C871.3-196.7,871.3-196.7,871.3-196.7z M870.7-196.6c0,0,0.1,0,0.1,0c0.2,0.2,0.5,0.4,0.7,0.6c0,0,0,0,0,0.1
				c-0.7,0.5-1.4,0.9-2.1,1.4c-0.1,0-0.2,0-0.3,0c-0.4,0-0.6,0.3-0.6,0.7c0,0.1,0,0.1,0,0.2c0,0,0,0,0,0c-0.1,0.1-0.2,0.2-0.4,0.3
				c-0.4,0.3-0.7,0.7-1,1c-0.1,0-0.1,0-0.1-0.1c0-0.1,0-0.1,0-0.2c0-0.1,0.1-0.1,0.1-0.2c0.4-0.6,0.8-1.2,1.3-1.8
				c0.5-0.6,1-1.1,1.5-1.5c0.2-0.2,0.4-0.3,0.6-0.4C870.6-196.6,870.7-196.6,870.7-196.6z M850.7-193.5c0.1-0.6,0.3-1.1,0.6-1.6
				c0.2-0.4,0.5-0.7,0.9-1c0.2-0.1,0.4-0.2,0.7-0.3c0.1,0,0.2,0,0.3,0c-0.8,1-1.6,2.1-2.5,3.1C850.7-193.4,850.7-193.5,850.7-193.5z
				 M868.6-177.5c0,0-0.1,0-0.1,0.1c-0.3-0.1-0.5-0.3-0.8-0.5c-0.6-0.6-1.1-1.2-1.5-2c-0.1-0.2-0.3-0.5-0.4-0.7c0-0.1,0-0.1-0.1-0.2
				c0,0,0-0.1,0-0.1c0,0,0,0,0.1,0c0.4,0.2,0.8,0.4,1.2,0.7c0,0.1,0,0.1,0.1,0.2c0.1,0.4,0.6,0.6,0.9,0.3c0,0,0.1-0.1,0.2-0.1
				c0,0,0.1,0,0.1,0c0.5,0.1,0.9,0.1,1.4,0.1c0.7,0,1.3-0.2,1.9-0.5c0.1,0,0.1,0,0.2-0.1c0,0.1,0,0.1,0,0.1
				c-0.2,0.3-0.4,0.5-0.7,0.8C870.3-178.7,869.5-178,868.6-177.5z M871.9-179.7c-0.2,0.5-0.5,1.1-0.9,1.5c-0.2,0.3-0.5,0.5-0.8,0.7
				c-0.1,0.1-0.2,0.1-0.3,0.2c-0.3,0.1-0.5,0.1-0.8,0.1c-0.1,0-0.1,0-0.1,0c0-0.1,0.1-0.1,0.1-0.1c0.3-0.2,0.6-0.4,0.9-0.7
				c0.3-0.2,0.6-0.5,0.9-0.8c0.3-0.3,0.6-0.5,0.8-0.8C871.8-179.7,871.8-179.8,871.9-179.7C871.9-179.8,871.9-179.8,871.9-179.7z
				 M874.5-187.4c0,0.3,0,0.6-0.1,0.8c0,0.4-0.1,0.8-0.2,1.2c-0.1,0.6-0.3,1.2-0.5,1.8c-0.2,0.5-0.4,1-0.6,1.4
				c-0.3,0.6-0.7,1-1.3,1.4c-0.5,0.3-1,0.5-1.6,0.6c-0.3,0.1-0.6,0.1-1,0.1c-0.3,0-0.5,0-0.8-0.1c-0.1,0-0.1,0-0.2,0
				c0,0-0.1,0-0.1-0.1c0-0.1,0-0.1-0.1-0.2c-0.2-0.4-0.6-0.5-0.9-0.3c0,0-0.1,0-0.1,0.1c-0.1,0-0.1,0-0.2-0.1
				c-0.2-0.1-0.4-0.2-0.6-0.3c-0.1-0.1-0.2-0.1-0.3-0.2c-0.1-0.1-0.1-0.1-0.1-0.2c0,0,0-0.1,0-0.1l-0.6,0.8c0,0,0,0,0,0
				c0.1,0,0.1,0.1,0.2,0.2c0.1,0.2,0.3,0.5,0.4,0.7c0.3,0.5,0.6,1,1,1.5c0.3,0.4,0.6,0.7,1,1c0,0,0.1,0.1,0.1,0.1
				c-0.1,0.1-0.2,0.2-0.3,0.2c-0.6,0.3-1.3,0.6-2,0.8c-0.6,0.2-1.2,0.3-1.8,0.4c-0.8,0.1-1.6,0.1-2.5,0.1c-0.3,0-0.7-0.1-1-0.1
				c-0.5-0.1-1-0.2-1.5-0.3c-1.3-0.4-2.4-0.9-3.5-1.6c-0.6-0.4-1.2-0.9-1.7-1.5c-1-1-1.8-2.1-2.4-3.3c-0.4-0.8-0.7-1.7-0.9-2.6
				c-0.1-0.5-0.2-1-0.2-1.5c0-0.3,0-0.5,0-0.8c0-0.2,0-0.4,0-0.5c0-0.4,0-0.7,0.1-1.1c0.1-0.6,0.2-1.1,0.3-1.7
				c0.2-0.9,0.6-1.7,1-2.6c0.1-0.1,0.1-0.2,0.2-0.3c0-0.1,0.1-0.2,0.2-0.3c0.1-0.2,0.3-0.3,0.6-0.4c0.3-0.1,0.5-0.1,0.8-0.2
				c0.2,0,0.3-0.1,0.5-0.1c0,0,0.1,0,0.1,0.1c0,0,0,0.1,0,0.1c0.1,0.4,0.7,0.5,1,0.2c0.1-0.1,0.2-0.1,0.3-0.1
				c0.2,0.1,0.4,0.1,0.6,0.2c0.1,0,0.1,0,0.1,0.1c0.1,0,0.1,0.1,0,0.2l0.7-0.4c-0.1,0-0.1,0-0.2,0c-0.1,0-0.1,0-0.2,0
				c-0.4-0.1-0.8-0.2-1.1-0.4c-0.1,0-0.2-0.1-0.2-0.2c0-0.2-0.2-0.3-0.3-0.3c-0.2-0.1-0.5,0-0.7,0.2c0,0-0.1,0.1-0.1,0.1
				c-0.5,0.1-1,0.1-1.4,0.2c0,0,0-0.1,0-0.1c0.3-0.4,0.6-0.8,0.9-1.1c0.2-0.2,0.3-0.3,0.5-0.5c0.3,0,0.6,0.1,0.9,0.2
				c0.4,0.1,0.9,0.3,1.3,0.6c0.3,0.2,0.5,0.4,0.8,0.5c0.1,0,0.1,0.1,0.2,0.1l0.2-0.3c-0.1,0-0.2-0.1-0.2-0.1
				c-0.3-0.2-0.6-0.4-0.9-0.6c-0.6-0.3-1.1-0.6-1.8-0.7c0,0,0,0-0.1,0c0,0,0,0,0,0c0-0.1,0-0.1,0.1-0.1c0.4-0.3,0.7-0.6,1.1-0.9
				c0.6-0.5,1.3-0.9,2-1.2c0.8-0.4,1.7-0.7,2.6-0.9c0.4-0.1,0.9-0.1,1.3-0.2c0.7-0.1,1.4-0.1,2.1,0c0.8,0,1.5,0.2,2.3,0.4
				c1.6,0.4,2.9,1.2,4.2,2.1c0.2,0.2,0.5,0.4,0.7,0.5c0,0,0.1,0.1,0.1,0.1c0,0-0.1,0.1-0.1,0.1c-0.6,0.4-1.2,0.8-1.7,1.3
				c-0.5,0.5-0.9,1-1.3,1.6c-0.2,0.3-0.5,0.7-0.7,1c0,0,0,0.1-0.1,0.1c-0.1,0-0.1-0.1-0.1-0.1l0.6,1c0,0,0-0.1,0.1-0.1
				c0.4-0.5,0.8-0.9,1.3-1.4c0,0,0,0,0-0.1c0,0,0.1-0.1,0.2,0c0.1,0.1,0.2,0.1,0.3,0.1c0.4,0,0.6-0.3,0.6-0.6c0,0,0-0.1,0-0.1
				c0-0.1,0-0.2,0.1-0.2c0.6-0.5,1.3-0.9,2-1.3c0,0,0.1,0,0.1-0.1c0.1,0.1,0.2,0.3,0.3,0.4c0.5,0.6,0.9,1.3,1.2,2.1
				c0.4,0.9,0.8,1.9,1,2.9c0.1,0.5,0.1,0.9,0.2,1.4C874.5-188.4,874.5-187.9,874.5-187.4z"/>
			<path class="st3" d="M866-181.6c0,0,0.1,0,0.1-0.1c0.1,0,0.2-0.1,0.3-0.2c0.1-0.1,0.1-0.2,0.1-0.3c0-0.1,0-0.1,0-0.2
				c0-0.1,0-0.2,0-0.3c0.2-0.2,0.5-0.4,0.7-0.6c0,0,0.1-0.1,0.1-0.1c0.2-0.1,0.4-0.3,0.5-0.4c0.1-0.1,0.1-0.2,0.1-0.3
				c0-0.1,0-0.2,0-0.2c0-0.2,0-0.4,0.1-0.5c-0.2-0.3-0.3-0.6-0.2-0.9c0,0,0-0.1-0.1-0.1c0-0.1,0-0.1,0-0.2c0.1-0.3,0.2-0.6,0.4-0.8
				c0.2-0.2,0.3-0.4,0.5-0.6c0.1-0.1,0.1-0.2,0.2-0.2c0-0.1,0.1-0.1,0.1-0.2c0.4-0.3,0.6-0.7,0.8-1.1c0.1-0.1,0.1-0.3,0.1-0.4
				c0.1-0.2,0.1-0.4,0.2-0.6c0.1-0.2,0.1-0.4,0.1-0.6c0-0.1,0-0.1-0.2-0.2c-0.2,0.2-0.4,0.2-0.7,0.4c-0.2,0.1-0.4,0.1-0.6,0.2
				c0,0-0.1-0.1-0.1-0.1c-0.1-0.1-0.1-0.1-0.1-0.2c0-0.1,0-0.1-0.1-0.2c-0.2-0.2-0.4-0.4-0.6-0.5c-0.2-0.1-0.3-0.3-0.4-0.4
				c0-0.1-0.1-0.1-0.1-0.2c-0.1-0.1-0.1-0.2-0.2-0.3l-0.6-1c0,0,0,0,0,0l0,0l0,0c0,0,0,0,0-0.1c0-0.1-0.1-0.2-0.2-0.3
				c-0.1-0.1-0.2-0.3-0.3-0.4c-0.1-0.1-0.1-0.2,0-0.3c0-0.1,0.1-0.2,0.1-0.3c0,0,0-0.1,0-0.1c-0.1-0.1-0.1-0.2-0.2-0.3
				c0-0.1-0.1-0.1-0.2-0.1c-0.2,0-0.4,0-0.5,0c0,0-0.1,0-0.1,0c-0.1,0.1-0.3,0.1-0.4,0.1c-0.3-0.1-0.6-0.1-1-0.2c0,0-0.1,0-0.1-0.1
				c-0.1,0-0.1,0-0.2,0c-0.3,0-0.2,0-0.5,0.2c0,0.1,0,0.2,0,0.2c0,0.1,0,0.1-0.1,0.1c-0.1,0-0.1,0-0.2,0c-0.1,0-0.2-0.1-0.3-0.1
				c0,0-0.1,0-0.1,0c-0.1,0-0.2-0.1-0.2-0.2c-0.2,0-0.3-0.1-0.5-0.1c-0.1,0-0.2-0.1-0.3-0.1c-0.1,0-0.1-0.1-0.2-0.1
				c0-0.1,0.1-0.1,0.1-0.2c0-0.1,0-0.2,0-0.2c0-0.1,0-0.1,0-0.2c0,0-0.1,0-0.1,0c-0.1,0-0.2,0-0.2-0.1c-0.2,0.1-0.4,0.1-0.6,0.1
				c-0.3,0-0.6,0-0.8,0c-0.1,0-0.2,0-0.3,0c-0.1,0-0.3,0.1-0.4,0.1c-0.3,0.1-0.5,0.1-0.8-0.1c0,0-0.1,0-0.1,0
				c-0.1,0-0.1,0.1-0.2,0.1c-0.1,0.2-0.3,0.3-0.6,0.4c0,0-0.1,0-0.1,0.1l-0.2,0.3c0,0.1,0,0.2-0.1,0.4c0,0.1-0.1,0.2-0.2,0.2l0,0
				l0,0c0,0,0,0,0,0l-0.7,0.4c0,0-0.1,0.1-0.1,0.1c-0.1,0.1-0.1,0.1-0.2,0.2c0,0-0.1,0.1-0.1,0.1c-0.1,0.1-0.2,0.2-0.3,0.4
				c-0.1,0.1-0.1,0.2-0.2,0.3c0,0.1-0.1,0.1-0.1,0.2c0,0.1,0,0.1,0,0.2c0,0,0,0.1,0,0.1c0,0.1-0.1,0.2,0,0.3c0,0.1,0,0.2,0,0.3
				c-0.1,0.2-0.1,0.5-0.3,0.7c0,0,0,0.1,0,0.2c0,0.1,0,0.1,0,0.2c0,0.1,0,0.2,0,0.3c0,0,0.1,0.1,0.1,0.1c0.1,0.1,0.2,0.2,0.2,0.4
				c0.1,0.3,0.3,0.6,0.4,0.9c0,0.1,0.1,0.1,0.1,0.1c0.2,0.2,0.4,0.4,0.6,0.6c0.1,0.1,0.1,0.1,0.2,0.2c0.1,0.1,0.1,0.1,0.2,0.1
				c0.1,0,0.1,0,0.2,0c0.2-0.1,0.4,0,0.6,0c0.1,0,0.1,0,0.2,0c0.1,0,0.2,0,0.2,0.1c0.1,0,0.2,0,0.2,0c0,0,0.1,0,0.1,0
				c0.2-0.1,0.5-0.2,0.8-0.2c0.1,0,0.3,0,0.4,0c0.1,0,0.2,0.1,0.3,0.2c0,0,0,0.1,0.1,0.1c0,0.1,0.1,0.1,0.1,0.2
				c0,0.1,0.1,0.1,0.2,0.1c0.1,0,0.2,0,0.3,0c0.1,0,0.2,0,0.3,0c0.1,0,0.1,0,0.1,0.1c0,0,0,0,0.1,0.1c0.1,0.1,0.1,0.2,0.1,0.4
				c0,0,0,0,0,0c0,0.1-0.1,0.2-0.1,0.3c0,0.1,0,0.2-0.1,0.3c-0.1,0.2,0,0.4,0.1,0.5c0,0,0.1,0.1,0.1,0.1c0.1,0.1,0.2,0.2,0.3,0.4
				c0.1,0.1,0.2,0.3,0.3,0.5c0.1,0.2,0.1,0.3,0.1,0.5c0,0,0,0.1,0,0.1c0,0.1,0,0.2,0.1,0.3c0.1,0.1,0,0.3,0,0.4c0,0,0,0.1,0,0.1
				c-0.2,0.2-0.3,0.4-0.3,0.7c0,0.1,0,0.3,0,0.4c0,0.1,0,0.1,0.1,0.2c0.1,0.2,0.2,0.3,0.3,0.5c0.1,0.1,0.1,0.2,0.2,0.3
				c0,0.1,0.1,0.1,0.1,0.2c0,0.2,0.1,0.4,0.1,0.6c0,0.1,0,0.1,0.1,0.1c0.1,0.1,0.2,0.2,0.3,0.3c0.1,0.1,0.2,0.2,0.2,0.4
				c0,0.1,0.1,0.2,0,0.3c0,0,0,0.1,0,0.1c0,0.1,0,0.1,0.1,0.2c0,0,0.1,0,0.1,0c0.1,0,0.1,0,0.2,0c0.1,0,0.1,0,0.2,0
				c0.1,0,0.3,0,0.4,0c0.3,0,0.6-0.1,0.9-0.2c0.2-0.1,0.3-0.1,0.5-0.3c0.2-0.1,0.3-0.3,0.5-0.4L866-181.6
				C865.9-181.5,865.9-181.5,866-181.6C866-181.5,866-181.6,866-181.6z"/>
			<path class="st3" d="M870.1-184.2c0-0.1-0.1-0.1-0.2-0.2c-0.1,0.2-0.2,0.4-0.4,0.5c-0.1,0.1-0.2,0.2-0.3,0.2c0,0-0.1,0-0.1,0
				c-0.1,0-0.2,0.1-0.2,0.3c0,0.1,0,0.1,0,0.2c0.1,0.1,0,0.3,0,0.4c0,0.1-0.1,0.1-0.1,0.2c0,0.1-0.1,0.1,0,0.2
				c0,0.2,0.1,0.4,0.1,0.5c0.2,0.1,0.3,0.1,0.5,0.1c0-0.1,0.1-0.2,0.1-0.2c0,0,0-0.1,0-0.2c0,0,0-0.1,0-0.1c0.1-0.2,0.1-0.4,0.2-0.6
				c0,0,0,0,0,0c0.1-0.3,0.1-0.5,0.3-0.8c0,0,0-0.1,0-0.1C870.1-184,870.1-184.1,870.1-184.2z"/>
		</g>
	</g>
	<g>
		<path id="path0_fill" class="st13" d="M793-175.4c2.3,0,4.2-1.9,4.2-4.2v-4.2H793c-2.3,0-4.2,1.9-4.2,4.2
			C788.8-177.3,790.7-175.4,793-175.4z"/>
		<path id="path1_fill" class="st14" d="M788.8-187.9c0-2.3,1.9-4.2,4.2-4.2h4.2v8.3H793C790.7-183.8,788.8-185.6,788.8-187.9z"/>
		<path id="path1_fill_1_" class="st15" d="M788.8-196.2c0-2.3,1.9-4.2,4.2-4.2h4.2v8.3H793C790.7-192.1,788.8-193.9,788.8-196.2z"
			/>
		<path id="path2_fill" class="st16" d="M797.1-200.4h4.2c2.3,0,4.2,1.9,4.2,4.2s-1.9,4.2-4.2,4.2h-4.2V-200.4z"/>
		<path id="path3_fill" class="st17" d="M805.5-187.9c0,2.3-1.9,4.2-4.2,4.2c-2.3,0-4.2-1.9-4.2-4.2c0-2.3,1.9-4.2,4.2-4.2
			C803.6-192.1,805.5-190.2,805.5-187.9z"/>
	</g>
</g>
<rect class="st0" width="1038.9" height="693.3"/>
<path class="st1" d="M572.7,176.2c-51.6-1.6-100.7-16.5-147.6-32.8s-93.4-34.3-143.7-43c-32.4-5.6-69.4-6.3-95.5,9.2
	c-25.1,15-33.2,40.7-37.6,64.7c-3.3,18-5.2,37,3.8,53.8c6.2,11.7,17.3,21.5,25,32.7c26.7,39,7.8,87.1-21.1,125.2
	c-13.5,17.9-29.3,34.9-39.7,53.9c-10.5,19-15.3,40.8-6.2,60.2c9.1,19.2,30.7,33.7,54.1,43.8c47.6,20.6,103.6,26.5,158.3,29.9
	c121,7.4,242.6,4.2,363.9,1c44.9-1.2,90-2.4,134.1-8.6c24.5-3.4,49.9-8.9,67.7-22.1c22.6-16.8,28.2-45.2,13.1-66.2
	c-25.4-35.3-95.6-44-113.4-81.9c-9.8-20.8,0.3-44,14.5-63.4c30.5-41.5,81.5-77.8,84.2-125.2c1.8-32.5-22.7-65.1-60.7-80.5
	c-39.8-16.1-95-14.1-124.3,12.6C671.4,167,618.3,177.6,572.7,176.2z"/>
<path class="st2" d="M976.4,97c-6.6,0-13.1,0-20,0c0-14.4,0-28.2,0-42.3c13.9,0,27.7,0,42.3,0c0,6.7,0,13.3,0,20c0,2.5,0,5,0,7.4
	c0,4.8,0,9.6,0,14.9c-5.5,0-10.2,0-14.9,0C981.3,97,978.8,97,976.4,97z M983.8,89.3c2.4,0,4.7,0,7.2,0c0-2.7,0-4.9,0-7.2
	c0-2.5,0-5,0-7.4c0-4.2,0-8.4,0-12.6c-9.4,0-18.2,0-27.2,0c0,9.2,0,18.1,0,27.3c4.4,0,8.5,0,12.6,0
	C978.8,89.3,981.3,89.3,983.8,89.3z"/>
<path class="st3" d="M996.2,116.9c-6.6,0-13.1,0-20,0c0-14.4,0-28.2,0-42.3c13.9,0,27.7,0,42.3,0c0,6.7,0,13.3,0,20c0,2.5,0,5,0,7.4
	c0,4.8,0,9.6,0,14.9c-5.5,0-10.2,0-14.9,0C1001.2,116.9,998.7,116.9,996.2,116.9z M1003.6,109.3c2.4,0,4.7,0,7.2,0
	c0-2.7,0-4.9,0-7.2c0-2.5,0-5,0-7.4c0-4.2,0-8.4,0-12.6c-9.4,0-18.2,0-27.2,0c0,9.2,0,18.1,0,27.3c4.4,0,8.5,0,12.6,0
	C998.7,109.3,1001.2,109.3,1003.6,109.3z"/>
<path class="st4" d="M46.5,611.3c4.4,8.2,8.6,16.2,13.1,24.5c-8.3,4.4-16.2,8.7-24.5,13.1c-4.4-8.3-8.6-16.2-13.1-24.5
	C30.3,620,38.2,615.8,46.5,611.3z M36.7,643.8c6.2-3.4,11.8-6.4,17.8-9.6c-3.3-6.2-6.4-11.7-9.6-17.7c-6.2,3.3-11.7,6.4-17.7,9.6
	C30.5,632.1,33.4,637.6,36.7,643.8z"/>
<circle class="st5" cx="124.1" cy="244.1" r="11.1"/>
<circle class="st6" cx="240.3" cy="16.6" r="13"/>
<circle class="st7" cx="240.3" cy="16.4" r="8.9"/>
<g>
	<circle class="st8" cx="15.1" cy="689.3" r="22"/>
	<circle class="st9" cx="28.9" cy="677.6" r="22"/>
</g>
<text transform="matrix(1 0 0 1 124.1151 225.6352)"><tspan x="0" y="0" class="st3 st18 st19">The Modern Day Developer;</tspan><tspan x="0" y="45.9" class="st2 st18 st19">Why and How?</tspan></text>
<g>
	<rect x="481.3" y="124.1" class="st3" width="82.3" height="22.7"/>
	<g>
		<path d="M488,139.9v-9.4h6.4v1.4h-4.8v2.4h4.7v1.4h-4.7v4.1H488z"/>
		<path d="M495.9,136.2v-5.7h1.6v5.6c0,0.8,0.2,1.4,0.6,1.8c0.4,0.4,1,0.7,1.8,0.7c0.8,0,1.4-0.2,1.8-0.7c0.4-0.4,0.6-1,0.6-1.8
			v-5.6h1.6v5.7c0,1.2-0.3,2.1-1,2.8c-0.7,0.7-1.7,1-3,1c-1.3,0-2.3-0.3-3-1C496.3,138.4,495.9,137.4,495.9,136.2z"/>
		<path d="M506.1,139.9v-9.4h1.6v7.9h4.1v1.4H506.1z"/>
		<path d="M513.1,137.8c-0.4-0.7-0.6-1.6-0.6-2.5s0.2-1.8,0.6-2.5c0.4-0.7,1-1.3,1.7-1.7c0.7-0.4,1.6-0.6,2.5-0.6
			c0.7,0,1.3,0.1,1.9,0.4c0.6,0.2,1.1,0.6,1.5,1c0.4,0.4,0.7,0.9,1,1.5c0.2,0.6,0.4,1.2,0.4,1.9s-0.1,1.3-0.4,1.9
			c-0.2,0.6-0.6,1.1-1,1.5c-0.4,0.4-0.9,0.8-1.5,1c-0.6,0.2-1.2,0.4-1.9,0.4c-0.9,0-1.8-0.2-2.5-0.6
			C514.1,139.1,513.5,138.5,513.1,137.8z M514.2,135.3c0,1,0.3,1.8,0.9,2.4c0.6,0.6,1.3,1,2.3,1c0.9,0,1.7-0.3,2.3-1
			c0.6-0.6,0.9-1.5,0.9-2.4c0-1-0.3-1.8-0.9-2.4c-0.6-0.6-1.3-1-2.3-1c-0.9,0-1.7,0.3-2.3,1C514.5,133.4,514.2,134.3,514.2,135.3z"
			/>
		<path d="M523.7,139.9v-9.4h1.6v4.5l3.7-4.5h2l-3.8,4.4l4.1,5h-2l-3.2-4l-0.8,1v3H523.7z"/>
		<path d="M531.9,137.8c-0.4-0.7-0.6-1.6-0.6-2.5s0.2-1.8,0.6-2.5c0.4-0.7,1-1.3,1.7-1.7c0.7-0.4,1.6-0.6,2.5-0.6
			c0.7,0,1.3,0.1,1.9,0.4c0.6,0.2,1.1,0.6,1.5,1c0.4,0.4,0.7,0.9,1,1.5c0.2,0.6,0.4,1.2,0.4,1.9s-0.1,1.3-0.4,1.9
			c-0.2,0.6-0.6,1.1-1,1.5c-0.4,0.4-0.9,0.8-1.5,1c-0.6,0.2-1.2,0.4-1.9,0.4c-0.9,0-1.8-0.2-2.5-0.6
			C532.9,139.1,532.3,138.5,531.9,137.8z M533,135.3c0,1,0.3,1.8,0.9,2.4c0.6,0.6,1.3,1,2.3,1c0.9,0,1.7-0.3,2.3-1
			c0.6-0.6,0.9-1.5,0.9-2.4c0-1-0.3-1.8-0.9-2.4c-0.6-0.6-1.3-1-2.3-1c-0.9,0-1.7,0.3-2.3,1C533.3,133.4,533,134.3,533,135.3z"/>
		<path d="M541.3,139.1l0.8-1.2c0.5,0.5,1,0.8,1.6,0.8c0.5,0,0.9-0.2,1.2-0.5c0.3-0.3,0.4-0.7,0.4-1.2v-6.4h1.6v6.4
			c0,1-0.3,1.8-0.9,2.3c-0.6,0.5-1.3,0.8-2.3,0.8C542.8,140.1,541.9,139.8,541.3,139.1z"/>
		<path d="M547.6,139.9l3.7-9.4h2.1l3.7,9.4h-1.9l-0.7-1.8h-4.3l-0.7,1.8H547.6z M550.6,136.7h3.4l-1.7-4.5L550.6,136.7z"/>
	</g>
	<rect x="481.3" y="54.3" class="st3" width="1.5" height="63.1"/>
	<g class="st10">
		<path class="st3" d="M491.4,68.7V55.9h3.3v12.8H491.4z"/>
		<path class="st3" d="M505.7,68.7l-5.4-7.4v7.4H497V55.9h3.4l5.2,7v-7h3.3v12.8H505.7z"/>
		<path class="st3" d="M510.5,62.3c0-4.1,3.1-6.6,6.9-6.6c2.9,0,4.6,1.5,5.5,3.1l-2.8,1.4c-0.5-0.8-1.5-1.6-2.7-1.6
			c-2.1,0-3.6,1.6-3.6,3.7c0,2.1,1.5,3.7,3.6,3.7c0.9,0,1.9-0.4,2.4-0.8v-1h-2.9v-2.9h6.2v5.1c-1.4,1.5-3.2,2.5-5.7,2.5
			C513.6,68.9,510.5,66.4,510.5,62.3z"/>
		<path class="st3" d="M532.2,68.7l-2.1-4.3h-1.7v4.3h-3.3V55.9h6.4c2.8,0,4.5,1.9,4.5,4.3c0,2.2-1.4,3.4-2.6,3.8l2.6,4.7H532.2z
			 M532.6,60.2c0-0.9-0.7-1.4-1.6-1.4h-2.6v2.7h2.6C531.8,61.5,532.6,61.1,532.6,60.2z"/>
		<path class="st3" d="M537.7,68.7V55.9h9.4v2.9H541v2h5.9v2.9H541v2.2h6.1v2.9H537.7z"/>
		<path class="st3" d="M548.1,66.9l1.7-2.5c0.9,0.9,2.3,1.7,4.1,1.7c1.1,0,1.8-0.4,1.8-1.1c0-1.7-7.3-0.3-7.3-5.3
			c0-2.1,1.8-4.1,5.1-4.1c2.1,0,3.8,0.6,5.2,1.8l-1.8,2.4c-1.1-0.9-2.5-1.3-3.7-1.3c-1,0-1.4,0.4-1.4,0.9c0,1.6,7.2,0.4,7.2,5.2
			c0,2.6-1.9,4.3-5.3,4.3C551.2,68.9,549.4,68.1,548.1,66.9z"/>
		<path class="st3" d="M559.7,66.9l1.7-2.5c0.9,0.9,2.3,1.7,4.1,1.7c1.1,0,1.8-0.4,1.8-1.1c0-1.7-7.3-0.3-7.3-5.3
			c0-2.1,1.8-4.1,5.1-4.1c2.1,0,3.8,0.6,5.2,1.8l-1.8,2.4c-1.1-0.9-2.5-1.3-3.7-1.3c-1,0-1.4,0.4-1.4,0.9c0,1.6,7.2,0.4,7.2,5.2
			c0,2.6-1.9,4.3-5.3,4.3C562.8,68.9,561,68.1,559.7,66.9z"/>
		<path class="st3" d="M572.3,68.7V55.9h3.3v12.8H572.3z"/>
		<path class="st3" d="M581.3,68.7l-4.8-12.8h3.7l3.1,9.2l3.2-9.2h3.7l-4.8,12.8H581.3z"/>
		<path class="st3" d="M591.2,68.7V55.9h9.4v2.9h-6.1v2h5.9v2.9h-5.9v2.2h6.1v2.9H591.2z"/>
	</g>
	<g class="st10">
		<path class="st3" d="M490.7,85.3c0-4,3-6.6,6.9-6.6c3.1,0,4.7,1.7,5.6,3.4l-2.8,1.3c-0.4-1-1.5-1.9-2.7-1.9
			c-2.1,0-3.6,1.6-3.6,3.7c0,2.1,1.5,3.7,3.6,3.7c1.2,0,2.3-0.8,2.7-1.9l2.8,1.3c-0.8,1.6-2.5,3.4-5.6,3.4
			C493.7,92,490.7,89.3,490.7,85.3z"/>
		<path class="st3" d="M513.2,91.7l-0.6-1.8h-5l-0.6,1.8h-3.7l4.8-12.8h4.1l4.8,12.8H513.2z M510,82.2l-1.6,4.8h3.3L510,82.2z"/>
		<path class="st3" d="M529.1,91.7v-8.3l-3.2,8.3h-1.5l-3.2-8.3v8.3h-3.3V78.9h4.6l2.7,6.9l2.7-6.9h4.6v12.8H529.1z"/>
		<path class="st3" d="M534.7,91.7V78.9h6.4c2.9,0,4.5,1.9,4.5,4.3c0,2.3-1.6,4.2-4.5,4.2H538v4.3H534.7z M542.2,83.2
			c0-0.9-0.7-1.4-1.5-1.4H538v2.7h2.7C541.5,84.6,542.2,84.1,542.2,83.2z"/>
		<path class="st3" d="M547,86.5v-7.6h3.4v7.5c0,1.5,0.9,2.6,2.7,2.6c1.8,0,2.7-1.1,2.7-2.6v-7.5h3.3v7.6c0,3.2-1.9,5.4-6,5.4
			C549,92,547,89.7,547,86.5z"/>
		<path class="st3" d="M560.5,89.9l1.7-2.5c0.9,0.9,2.3,1.7,4.1,1.7c1.1,0,1.8-0.4,1.8-1.1c0-1.7-7.3-0.3-7.3-5.3
			c0-2.1,1.8-4.1,5.1-4.1c2.1,0,3.8,0.6,5.2,1.8l-1.8,2.4c-1.1-0.9-2.5-1.3-3.7-1.3c-1,0-1.4,0.4-1.4,0.9c0,1.6,7.2,0.4,7.2,5.2
			c0,2.6-1.9,4.3-5.3,4.3C563.6,92,561.8,91.2,560.5,89.9z"/>
	</g>
	<g class="st10">
		<path class="st3" d="M500.1,114.7l-0.6-1.8h-5l-0.6,1.8H490l4.8-12.8h4.1l4.8,12.8H500.1z M496.9,105.2l-1.6,4.8h3.3L496.9,105.2z
			"/>
		<path class="st3" d="M516,114.7v-8.3l-3.2,8.3h-1.5l-3.2-8.3v8.3h-3.3V102h4.6l2.7,6.9l2.7-6.9h4.6v12.8H516z"/>
		<path class="st3" d="M521.6,114.7V102h7.3c2.5,0,3.7,1.6,3.7,3.3c0,1.6-1,2.7-2.2,2.9c1.4,0.2,2.4,1.5,2.4,3.1
			c0,1.9-1.2,3.5-3.8,3.5H521.6z M529.2,105.8c0-0.6-0.5-1.1-1.1-1.1h-3.2v2.1h3.2C528.8,106.9,529.2,106.4,529.2,105.8z
			 M529.5,110.8c0-0.6-0.5-1.2-1.3-1.2h-3.3v2.3h3.3C529,112,529.5,111.5,529.5,110.8z"/>
		<path class="st3" d="M543.3,114.7l-0.6-1.8h-5l-0.6,1.8h-3.7l4.8-12.8h4.1l4.8,12.8H543.3z M540.1,105.2l-1.6,4.8h3.3L540.1,105.2
			z"/>
		<path class="st3" d="M547,112.9l1.7-2.5c0.9,0.9,2.3,1.7,4.1,1.7c1.1,0,1.8-0.4,1.8-1.1c0-1.7-7.3-0.3-7.3-5.3
			c0-2.1,1.8-4.1,5.1-4.1c2.1,0,3.8,0.6,5.2,1.8l-1.8,2.4c-1.1-0.9-2.5-1.3-3.7-1.3c-1,0-1.4,0.4-1.4,0.9c0,1.6,7.2,0.4,7.2,5.2
			c0,2.6-1.9,4.3-5.3,4.3C550.1,115,548.3,114.2,547,112.9z"/>
		<path class="st3" d="M558.6,112.9l1.7-2.5c0.9,0.9,2.3,1.7,4.1,1.7c1.1,0,1.8-0.4,1.8-1.1c0-1.7-7.3-0.3-7.3-5.3
			c0-2.1,1.8-4.1,5.1-4.1c2.1,0,3.8,0.6,5.2,1.8l-1.8,2.4c-1.1-0.9-2.5-1.3-3.7-1.3c-1,0-1.4,0.4-1.4,0.9c0,1.6,7.2,0.4,7.2,5.2
			c0,2.6-1.9,4.3-5.3,4.3C561.7,115,559.9,114.2,558.6,112.9z"/>
		<path class="st3" d="M579.7,114.7l-0.6-1.8h-5l-0.6,1.8h-3.7l4.8-12.8h4.1l4.8,12.8H579.7z M576.5,105.2l-1.6,4.8h3.3L576.5,105.2
			z"/>
		<path class="st3" d="M584.3,114.7V102h5.4c4,0,6.9,2.4,6.9,6.4c0,4-2.9,6.4-6.9,6.4H584.3z M593.3,108.3c0-2-1.2-3.5-3.5-3.5h-2.1
			v7h2.1C592,111.9,593.3,110.2,593.3,108.3z"/>
		<path class="st3" d="M597.6,108.4c0-3.9,2.9-6.6,6.8-6.6c3.9,0,6.8,2.7,6.8,6.6c0,3.9-2.9,6.6-6.8,6.6
			C600.6,115,597.6,112.3,597.6,108.4z M608,108.4c0-2.1-1.4-3.7-3.5-3.7c-2.1,0-3.5,1.6-3.5,3.7c0,2.1,1.4,3.7,3.5,3.7
			C606.6,112.1,608,110.4,608,108.4z"/>
		<path class="st3" d="M620.1,114.7l-2.1-4.3h-1.7v4.3H613V102h6.4c2.8,0,4.5,1.9,4.5,4.3c0,2.2-1.4,3.4-2.6,3.8l2.6,4.7H620.1z
			 M620.5,106.2c0-0.9-0.7-1.4-1.6-1.4h-2.6v2.7h2.6C619.7,107.6,620.5,107.1,620.5,106.2z"/>
		<path class="st3" d="M624.7,112.9l1.7-2.5c0.9,0.9,2.3,1.7,4.1,1.7c1.1,0,1.8-0.4,1.8-1.1c0-1.7-7.3-0.3-7.3-5.3
			c0-2.1,1.8-4.1,5.1-4.1c2.1,0,3.8,0.6,5.2,1.8l-1.8,2.4c-1.1-0.9-2.5-1.3-3.7-1.3c-1,0-1.4,0.4-1.4,0.9c0,1.6,7.2,0.4,7.2,5.2
			c0,2.6-1.9,4.3-5.3,4.3C627.8,115,626,114.2,624.7,112.9z"/>
	</g>
	<path class="st3" d="M373.5,59.4c1.1-0.2,2.2-0.4,3.4-0.6c3.9-0.7,7.8-1.5,11.8-2.2c4.4-0.8,8.8-1.7,13.2-2.5
		c5.9-1.2,11.9-2.3,17.8-3.5c2.7-0.6,5.4-0.5,8.1,0.1c5.8,1.1,11.6,2.2,17.4,3.3c6.4,1.2,12.9,2.5,19.3,3.7c2.7,0.5,5.3,1,7.9,1.6
		c0.6,0.1,1.2,0.4,1.7,1c-0.3,0.1-0.6,0.2-0.8,0.2c-5.9,1.5-11.7,3-17.6,4.5c-5.6,1.5-11.2,2.9-16.8,4.4c-4,1-8,2-12,3
		c-2.5,0.6-5.1,0.4-7.6-0.2c-4.4-1.1-8.8-2.2-13.1-3.4c-6.7-1.7-13.5-3.5-20.2-5.2c-3.5-0.9-7-1.8-10.5-2.7c-0.5-0.1-1-0.4-1.4-0.6
		c-0.2-0.1-0.4-0.3-0.6-0.5C373.5,59.5,373.5,59.5,373.5,59.4z"/>
	<path class="st3" d="M463,64.2c0,0.2,0.1,0.3,0.1,0.5c0.3,4,0.3,7.9,0.1,11.9c0,1,0,1.9,0.2,2.9c0.1,0.8,0.5,1.6,1.2,2.1
		c0.4,0.3,0.5,0.8,0.3,1.3c-0.2,0.6-0.4,1.3-0.7,1.9c-0.5,1.1-0.6,2.2-0.3,3.4c0.8,3.2,1.6,6.4,2.4,9.6c0,0.1,0,0.2,0.1,0.4
		c-0.8,0-1.6,0.1-2.4,0.1c-1.4,0-2.8,0-4.2,0c-0.2,0-0.3,0-0.5-0.1c-0.6-0.1-0.8-0.4-0.8-1c0.2-1.4,0.5-2.8,0.8-4.2
		c0.4-1.7,0.9-3.3,1.2-5c0.3-1.4,0.1-2.9-0.5-4.2c-0.3-0.6-0.2-1.2,0.1-1.7c0.3-0.6,0.7-1.2,1-1.8c0.2-0.5,0.4-1.1,0.4-1.6
		c0-3.8,0-7.6,0-11.5c0-0.8,0.1-1.5,0.5-2.2C462.1,64.5,462.4,64.2,463,64.2z"/>
	<g>
		<path class="st11" d="M445.2,111.4c-0.6,0.7-1.2,1.2-1.8,1.8c-0.7,0.6-1.4,1.2-2.1,1.8c-0.7,0.5-1.4,1-2.2,1.5
			c-0.1,0.1-0.2,0.1-0.2,0.3c0.1,0,0.2,0.1,0.3,0.1c0.6,0.1,1.2,0.1,1.8-0.2c0.2-0.1,0.5-0.2,0.7-0.4c0.7-0.5,1.3-1,1.8-1.7
			c0.8-1,1.5-2.2,2-3.4c0,0,0-0.1,0-0.2C445.5,111.1,445.4,111.3,445.2,111.4z"/>
		<path class="st11" d="M443.8,111.8c0.5-0.6,1-1.1,1.5-1.7c0-0.1,0.1-0.1,0-0.2c-0.1,0.1-0.2,0.1-0.4,0.2c-1.4,0.6-2.8,1-4.3,1.1
			c-1.1,0.1-2.1,0-3.2-0.3c-0.1,0-0.2,0-0.3,0c-0.1,0.1-0.2,0.2-0.3,0.3c-0.8,0.6-1.9,0.2-2.1-0.6c0-0.1-0.1-0.3-0.1-0.5
			c-0.9-0.6-1.8-1-2.7-1.6c0,0-0.1,0-0.1,0c0,0.1,0,0.1,0,0.2c0,0.2,0.1,0.3,0.2,0.5c0.2,0.6,0.5,1.1,0.8,1.7c1,1.6,2.1,3.1,3.5,4.5
			c0.5,0.5,1,0.9,1.7,1.2c0.1,0,0.2-0.1,0.2-0.1C440.2,115.1,442.1,113.6,443.8,111.8z"/>
		<path class="st11" d="M433.5,81.2L433.5,81.2C433.5,81.2,433.5,81.2,433.5,81.2z"/>
		<path class="st11" d="M437.7,77.3c-1.1,1.3-2,2.6-3,4c-0.1,0.1-0.1,0.2-0.2,0.3c-0.1,0.1-0.1,0.3-0.1,0.4c0,0.2,0.1,0.3,0.3,0.3
			c0.8-0.7,1.6-1.5,2.4-2.2c0.3-0.3,0.5-0.5,0.8-0.8c0-0.1,0-0.1,0-0.1c0-0.1,0-0.2,0-0.4c-0.1-0.8,0.5-1.5,1.3-1.5
			c0.2,0,0.5,0.1,0.8,0.1c1.6-1,3.2-2.1,4.8-3.2c0,0,0.1-0.1,0.1-0.1c-0.5-0.5-1-0.9-1.5-1.4c-0.1-0.1-0.2-0.1-0.3-0.1
			c-0.1,0-0.2,0.1-0.3,0.1c-0.5,0.3-1,0.6-1.5,0.9C439.9,74.9,438.8,76.1,437.7,77.3z"/>
		<path class="st11" d="M445.7,74.2c0.4-0.1,0.8-0.1,1.2-0.3c-0.4-0.7-1-1.2-1.7-1.3c-0.3-0.1-0.5-0.1-0.8,0c-0.1,0-0.2,0-0.2,0.2
			c0.4,0.4,0.8,0.9,1.2,1.4C445.5,74.2,445.6,74.2,445.7,74.2z"/>
		<path class="st11" d="M448.4,78.2c0,0,0.1,0.1,0.1,0.1c0.1-0.3,0-0.6-0.1-0.9c-0.1-0.5-0.2-1-0.4-1.5c-0.2-0.4-0.4-0.9-0.6-1.3
			c-0.6,0-0.9,0-1.3,0.2C446.9,76,447.7,77.1,448.4,78.2z"/>
		<path class="st11" d="M413.3,74.6c0.1-0.1,0.2-0.2,0.4-0.3c0.1,0,0.1,0.1,0.2,0.1c0.5,0.3,1.1,0.4,1.7,0.2c0.3-0.1,0.7-0.2,1-0.3
			c0.2-0.1,0.4-0.1,0.7-0.1c0.6,0,1.3,0,1.9,0c0.4,0,0.9,0,1.3-0.2c0.2,0.1,0.3,0.2,0.5,0.2c0.1,0,0.1,0,0.2,0.1
			c0,0.2-0.1,0.4-0.1,0.5c0,0.2,0,0.4,0,0.6c-0.1,0.2-0.3,0.3-0.3,0.5c0.1,0.2,0.2,0.2,0.4,0.3c0.3,0.1,0.5,0.2,0.8,0.3
			c0.3,0.1,0.7,0.2,1.1,0.3c0,0.3,0.2,0.5,0.4,0.6c0.1,0,0.1,0.1,0.2,0.1c0.3,0,0.5,0.2,0.8,0.3c0.1,0,0.2,0.1,0.4,0.1
			c0.2,0,0.3-0.1,0.3-0.3c0-0.2,0-0.4,0-0.6c0.6-0.5,0.5-0.4,1.1-0.4c0.1,0,0.3,0,0.4,0.1c0.1,0.1,0.2,0.1,0.3,0.1
			c0.7,0.2,1.4,0.4,2.2,0.5c0.3,0.1,0.7,0.1,1-0.1c0.1-0.1,0.2-0.1,0.3-0.1c0.4,0,0.8,0,1.2,0c0.1,0,0.3,0,0.4,0.2
			c0.1,0.2,0.3,0.5,0.5,0.7c0,0.1,0.1,0.2,0.1,0.3c0,0.3-0.1,0.5-0.2,0.8c-0.1,0.3-0.1,0.5,0.1,0.7c0.2,0.3,0.4,0.6,0.6,0.9
			c0.2,0.2,0.3,0.4,0.4,0.7c0,0.1,0,0.1,0.1,0.2l0,0c0,0.1,0.1,0.2,0.2,0.2c0.1-0.1,0.1-0.1,0.2-0.2c0.6-0.8,1.1-1.5,1.7-2.3
			c0.9-1.2,1.9-2.5,3-3.6c1.1-1.2,2.4-2.2,3.8-3c0.1,0,0.1-0.1,0.2-0.2c-0.1-0.1-0.2-0.2-0.3-0.2c-0.5-0.4-1-0.8-1.5-1.2
			c-2.9-2.2-6.1-3.9-9.6-4.9c-1.7-0.5-3.4-0.8-5.2-0.9c-1.6-0.1-3.2-0.1-4.8,0.1c-1,0.1-2,0.2-3,0.4c-2.1,0.4-4.1,1.1-6,2
			c-1.6,0.7-3.1,1.7-4.6,2.7c-0.9,0.7-1.8,1.4-2.6,2.1c-0.1,0.1-0.2,0.1-0.1,0.2c0,0,0,0,0,0c0,0,0.1,0,0.1,0.1
			c1.4,0.3,2.8,0.9,4,1.6c0.7,0.4,1.4,0.9,2.1,1.3c0.2,0.1,0.3,0.2,0.5,0.3c0.1,0,0.2-0.1,0.3-0.1C412.5,75.4,413,75.1,413.3,74.6z"
			/>
		<path class="st11" d="M429.6,110c-0.3,0.3-0.7,0.4-1,0.6c-0.7,0.2-1.4,0.4-2.1,0.4c-0.3,0-0.7,0-1,0.1c-0.1,0-0.3,0-0.4,0
			c-0.1,0-0.2-0.1-0.4-0.1c-0.1,0-0.2,0-0.3-0.1c-0.1-0.2-0.1-0.3-0.1-0.4c0-0.1,0-0.2,0-0.3c0.1-0.2,0-0.4-0.1-0.6
			c-0.2-0.3-0.4-0.6-0.6-0.8c-0.2-0.2-0.4-0.5-0.6-0.8c-0.1-0.1-0.1-0.2-0.1-0.3c-0.1-0.5-0.3-0.9-0.3-1.4c0-0.1-0.1-0.3-0.1-0.4
			c-0.1-0.2-0.2-0.5-0.4-0.7c-0.2-0.4-0.5-0.7-0.7-1.1c-0.1-0.1-0.2-0.2-0.2-0.4c0-0.3,0-0.7,0.1-1c0.1-0.6,0.4-1.1,0.7-1.5
			c0-0.1,0.1-0.1,0.1-0.2c0.1-0.3,0.1-0.7,0-1c-0.1-0.2-0.2-0.4-0.2-0.7c0-0.1,0-0.1,0-0.2c-0.1-0.4-0.2-0.7-0.3-1
			c-0.1-0.4-0.3-0.8-0.6-1.1c-0.2-0.3-0.5-0.5-0.7-0.8c-0.1-0.1-0.2-0.2-0.3-0.3c-0.3-0.3-0.5-0.7-0.3-1.1c0.1-0.2,0.2-0.4,0.1-0.7
			c0-0.2,0.2-0.4,0.2-0.6c0,0,0-0.1,0-0.1c0.1-0.3,0-0.6-0.2-0.8c-0.1,0-0.1-0.1-0.1-0.1c-0.1-0.1-0.2-0.1-0.3-0.1
			c-0.2,0-0.4,0-0.6,0c-0.2,0-0.4,0-0.6,0c-0.2,0-0.3-0.1-0.4-0.2c-0.1-0.1-0.1-0.2-0.2-0.4c0-0.1-0.1-0.2-0.1-0.3
			c-0.1-0.2-0.3-0.4-0.6-0.4c-0.3,0-0.6,0-0.9,0.1c-0.6,0.1-1.2,0.3-1.7,0.5c-0.1,0-0.2,0.1-0.3,0.1c-0.2,0.1-0.4,0.1-0.6,0
			c-0.2-0.1-0.4-0.1-0.5-0.1c-0.2,0-0.3,0-0.5,0c-0.4,0-0.9,0-1.3,0.1c-0.1,0-0.3,0-0.4,0c-0.2,0-0.3,0-0.4-0.2
			c-0.1-0.1-0.3-0.3-0.5-0.4c-0.5-0.4-0.9-0.9-1.5-1.3c-0.1-0.1-0.2-0.2-0.3-0.3c-0.3-0.7-0.7-1.3-1-2c-0.1-0.3-0.3-0.6-0.6-0.8
			c-0.1-0.1-0.1-0.1-0.2-0.3c0.2-0.2,0.1-0.4,0.1-0.7c0-0.2,0-0.3,0-0.5c0-0.1,0-0.2,0.1-0.3c0.3-0.5,0.5-1,0.7-1.5
			c0.1-0.2,0.1-0.4,0.1-0.7c-0.1-0.2,0.1-0.4,0-0.7c0-0.1-0.1-0.2-0.1-0.3c-0.1-0.1-0.1-0.2,0-0.4c0-0.2,0.1-0.3,0.2-0.5
			c0.2-0.2,0.3-0.4,0.5-0.7c0.2-0.3,0.4-0.6,0.7-0.8c0.1-0.1,0.2-0.2,0.2-0.3c0.1-0.2,0.2-0.3,0.4-0.5c0.1-0.1,0.2-0.2,0.3-0.3
			c0.1-0.1,0.1-0.3-0.1-0.4c-0.1-0.1-0.2-0.1-0.3-0.1c-0.5-0.1-1-0.3-1.4-0.4c-0.3-0.1-0.4,0-0.6,0.2c-0.7,0.9-1.9,0.5-2.3-0.4
			c0-0.1,0-0.1-0.1-0.2c0-0.1-0.1-0.1-0.3-0.1c-0.4,0.1-0.7,0.2-1.1,0.2c-0.6,0.1-1.1,0.3-1.7,0.4c-0.5,0.1-0.9,0.4-1.3,0.9
			c-0.1,0.2-0.3,0.4-0.4,0.6c-0.1,0.2-0.2,0.5-0.4,0.7c-1,1.9-1.7,3.8-2.2,5.8c-0.3,1.3-0.6,2.6-0.7,3.9c-0.1,0.8-0.1,1.7-0.1,2.5
			c0,0.4,0,0.8,0,1.2c0,0.6,0,1.2,0.1,1.8c0.1,1.2,0.3,2.3,0.6,3.5c0.5,2.1,1.1,4,2,5.9c1.4,2.8,3.2,5.3,5.4,7.5
			c1.2,1.2,2.5,2.4,4,3.4c2.5,1.7,5.1,2.9,8,3.8c1.2,0.3,2.3,0.6,3.5,0.8c0.8,0.1,1.5,0.2,2.3,0.3c1.9,0.1,3.7,0.1,5.6-0.2
			c1.4-0.2,2.8-0.5,4.1-0.9c1.6-0.4,3.1-1,4.5-1.8c0.3-0.1,0.5-0.3,0.8-0.5c-0.1-0.1-0.2-0.2-0.3-0.2c-0.8-0.6-1.6-1.4-2.2-2.2
			c-0.9-1.1-1.6-2.2-2.3-3.5c-0.3-0.6-0.6-1.1-0.9-1.7c-0.1-0.2-0.2-0.3-0.4-0.4c0,0-0.1,0-0.1,0C430.4,109.4,430,109.7,429.6,110z"
			/>
		<path class="st11" d="M451.1,87.3c-0.4-2.3-1.2-4.5-2.2-6.6c-0.8-1.7-1.7-3.2-2.8-4.7c-0.2-0.3-0.5-0.7-0.7-1
			c-0.1,0-0.2,0.1-0.3,0.1c-1.6,0.7-3.1,1.8-4.5,2.9c-0.2,0.1-0.2,0.3-0.2,0.5c0,0.1,0,0.1,0,0.2c0.1,0.6-0.5,1.4-1.3,1.4
			c-0.3,0-0.5-0.1-0.7-0.2c-0.1-0.1-0.3,0-0.4,0.1c0,0-0.1,0.1-0.1,0.1c-1,1.1-1.9,2.1-2.9,3.2c-0.1,0.1-0.1,0.2-0.2,0.2
			c0.1,0.2,0.3,0.4,0.4,0.6c0.1,0.1,0.2,0.3,0.3,0.5c0.2,0.4,0.5,0.7,0.9,1c0.5,0.3,0.9,0.7,1.3,1.2c0.1,0.1,0.2,0.2,0.2,0.4
			c0,0.2,0.1,0.3,0.2,0.4c0.1,0.1,0.2,0.2,0.3,0.2c0.4-0.2,0.9-0.3,1.3-0.5c0.5-0.3,1.1-0.4,1.5-0.8c0.3,0.1,0.4,0.1,0.4,0.4
			c0,0.4,0,0.9-0.2,1.3c-0.1,0.4-0.3,0.9-0.4,1.3c-0.1,0.3-0.2,0.6-0.3,0.9c-0.5,1-1.1,1.9-1.9,2.6c-0.1,0.1-0.2,0.2-0.3,0.3
			c-0.1,0.2-0.3,0.3-0.4,0.5c-0.4,0.5-0.7,0.9-1.1,1.4c-0.4,0.6-0.7,1.2-1,1.8c-0.1,0.2-0.1,0.3,0,0.5c0,0.1,0.1,0.1,0.1,0.2
			c-0.2,0.8,0,1.4,0.4,2c-0.2,0.4-0.2,0.8-0.2,1.2c0,0.2,0,0.3,0,0.5c0,0.2-0.1,0.4-0.2,0.6c-0.3,0.4-0.6,0.8-1.1,1
			c-0.1,0-0.2,0.1-0.3,0.2c-0.6,0.4-1.2,0.8-1.7,1.3c0,0.2,0,0.4,0,0.6c0,0.2,0,0.3,0.1,0.5c0.1,0.3-0.1,0.5-0.2,0.8
			c-0.2,0.3-0.4,0.5-0.7,0.6c-0.1,0-0.2,0.1-0.3,0.1c0,0-0.1,0-0.1,0.1l0,0.1c0,0.1-0.1,0.2,0,0.3c0.1,0.2,0.2,0.3,0.3,0.5
			c0.2,0.2,0.5,0.4,0.8,0.5c0.5,0.2,0.9,0.4,1.4,0.6c0.1,0,0.2,0.1,0.3,0.1c0.1-0.1,0.1-0.1,0.2-0.2c0.8-0.6,1.7-0.3,2.1,0.6
			c0,0.1,0.1,0.3,0.1,0.4c0.1,0,0.2,0.1,0.3,0.1c0.1,0,0.3,0.1,0.4,0.1c0.6,0.1,1.1,0.1,1.7,0.1c0.7,0,1.5,0,2.2-0.2
			c1.3-0.3,2.5-0.7,3.6-1.4c1.3-0.8,2.2-1.8,2.9-3.1c0.5-1.1,1-2.2,1.5-3.3c0.5-1.3,0.9-2.7,1.2-4.1c0.2-0.9,0.4-1.8,0.4-2.7
			c0-0.6,0.1-1.3,0.2-1.9c0-1.1,0-2.2,0-3.3C451.4,89.4,451.3,88.3,451.1,87.3z M441.6,102.1c-0.3,0.5-0.5,1.1-0.6,1.7
			c0,0,0,0.1,0,0.1c-0.3,0.5-0.3,1-0.5,1.5c0,0.1-0.1,0.1-0.1,0.2c0,0.1,0,0.2-0.1,0.4c-0.1,0.2-0.2,0.3-0.3,0.5
			c-0.4,0-0.8,0.1-1.2-0.2c-0.2-0.3-0.2-0.8-0.3-1.2c0-0.2,0-0.3,0.1-0.5c0.1-0.2,0.1-0.3,0.2-0.5c0.1-0.3,0.1-0.6,0-0.9
			c0-0.1,0-0.3,0-0.4c0-0.3,0.2-0.5,0.5-0.6c0.1,0,0.2-0.1,0.3-0.1c0.2-0.1,0.5-0.2,0.6-0.4c0.3-0.4,0.7-0.7,0.9-1.2
			c0.2,0.1,0.3,0.2,0.3,0.4c0.1,0.3,0.1,0.6,0.2,0.9C441.7,101.9,441.7,102.1,441.6,102.1z"/>
		<path class="st11" d="M432.1,107.2L432.1,107.2C432.1,107.1,432.1,107.2,432.1,107.2z"/>
		<path class="st11" d="M411,77.2c0.1-0.3,0.2-0.5,0.2-0.8c-0.1-0.1-0.2-0.2-0.4-0.3c-0.6-0.4-1.2-0.8-1.8-1.2
			c-0.9-0.6-1.8-1-2.9-1.3c-0.7-0.2-1.3-0.4-2.1-0.4c-0.4,0.3-0.7,0.7-1.1,1.1c-0.7,0.8-1.4,1.7-2,2.6c0,0,0,0.1,0,0.2
			c1.1-0.2,2.2-0.3,3.3-0.5c0.1-0.1,0.2-0.2,0.2-0.3c0.4-0.5,1-0.6,1.6-0.4c0.3,0.1,0.6,0.4,0.7,0.7c0.1,0.2,0.2,0.4,0.5,0.4
			c0.9,0.3,1.7,0.6,2.6,0.8c0.1,0,0.2,0.1,0.4,0.1c0.2,0,0.3,0,0.4-0.1l0.1-0.1C410.8,77.6,411,77.4,411,77.2z"/>
		<path class="st3" d="M452.3,92.1c0-1-0.1-2-0.2-3c-0.1-0.9-0.3-1.8-0.5-2.8c-0.3-1.5-0.8-2.9-1.3-4.3c-0.2-0.5-0.3-1-0.3-1.5
			c0-0.5,0-1,0-1.5c0-0.9,0-1.7-0.1-2.6c-0.1-0.8-0.5-1.5-1.2-2c-0.5-0.3-0.8-0.7-1.2-1.1c-0.9-1.2-2.1-1.7-3.6-1.5
			c-0.1,0-0.3,0-0.5,0c-0.2-0.1-0.3-0.3-0.4-0.4c-1.1-0.9-2.2-1.8-3.3-2.6c-2.8-1.9-5.8-3.2-9-4c-1.8-0.4-3.7-0.7-5.6-0.8
			c-1.5-0.1-3.1,0-4.6,0.2c-1,0.1-2,0.3-3,0.5c-1.6,0.4-3.2,0.9-4.8,1.6c-2.6,1.1-4.9,2.6-7.1,4.4c-0.4,0.4-0.9,0.7-1.3,1.1
			c-0.4,0.3-0.8,0.5-1.2,0.5c-1.3,0.1-2.4,0.6-3.4,1.5c-0.8,0.7-1.3,1.5-1.8,2.4c-1.2,2.3-1.8,4.7-2.2,7.3c-0.1,0.7-0.2,1.4-0.2,2.1
			c-0.1,1.1-0.2,2.2-0.3,3.3c-0.1,1.5-0.1,3.1,0.1,4.6c0.1,0.7,0.1,1.5,0.3,2.2c0.2,1,0.4,1.9,0.6,2.9c0.4,1.7,0.8,3.3,1.5,4.9
			c1.3,3,3,5.8,5.3,8.2c1.4,1.6,3.1,3,4.8,4.2c1.7,1.1,3.4,2.1,5.3,2.9c1.6,0.7,3.3,1.2,5,1.5c0.9,0.2,1.7,0.3,2.6,0.4
			c0.7,0.1,1.3,0.2,2,0.2c1.5,0,3.1,0,4.6-0.2c1.1-0.1,2.2-0.3,3.3-0.6c2-0.5,3.9-1.2,5.7-2.1c0.3-0.1,0.6-0.3,0.9-0.4
			c0.6-0.2,1.2-0.3,1.8-0.1c0.9,0.2,1.8,0.1,2.6-0.4c0.6-0.3,1.1-0.7,1.6-1.2c0.8-0.8,1.5-1.7,2.1-2.6c0.8-1.2,1.4-2.6,1.9-3.9
			c0.4-1,0.8-1.9,1.4-2.9c0.8-1.5,1.5-3,2.1-4.6c0.6-1.7,1-3.3,1.3-5.1c0.1-0.7,0.2-1.4,0.3-2.2C452.3,93.9,452.3,93,452.3,92.1z
			 M447.5,74.7c0.2,0.4,0.4,0.8,0.6,1.3c0.2,0.5,0.3,1,0.4,1.5c0,0.3,0.1,0.6,0.1,0.9c0,0-0.1-0.1-0.1-0.1c-0.7-1.1-1.5-2.2-2.2-3.3
			C446.6,74.7,446.9,74.7,447.5,74.7z M444.4,72.6c0.3-0.1,0.5,0,0.8,0c0.7,0.2,1.3,0.7,1.7,1.3c-0.4,0.1-0.8,0.2-1.2,0.3
			c-0.1,0-0.2,0-0.3-0.1c-0.4-0.5-0.8-0.9-1.2-1.4C444.2,72.6,444.3,72.6,444.4,72.6z M443,72.8c0.1,0,0.2,0,0.3,0.1
			c0.5,0.5,1,0.9,1.5,1.4c0,0-0.1,0.1-0.1,0.1c-1.6,1.1-3.3,2.1-4.8,3.2c-0.3,0-0.5-0.1-0.8-0.1c-0.8,0-1.4,0.7-1.3,1.5
			c0,0.1,0,0.2,0,0.4c0,0,0,0,0,0.1c-0.3,0.2-0.5,0.5-0.8,0.8c-0.8,0.7-1.5,1.5-2.4,2.2c-0.2,0-0.3-0.1-0.3-0.3c0-0.2,0-0.3,0.1-0.4
			c0.1-0.1,0.1-0.2,0.2-0.3c1-1.4,1.9-2.7,3-4c1.1-1.3,2.2-2.4,3.5-3.5c0.5-0.4,1-0.6,1.5-0.9C442.8,72.9,442.9,72.9,443,72.8z
			 M397.4,79.8c0.3-1.3,0.7-2.6,1.4-3.7c0.5-0.9,1.2-1.6,2-2.2c0.5-0.3,1-0.5,1.5-0.7c0.2,0,0.4-0.1,0.6,0c-1.8,2.4-3.7,4.7-5.6,7
			C397.3,80.1,397.3,80,397.4,79.8z M438.1,116.4c-0.1,0-0.2,0.1-0.2,0.1c-0.7-0.3-1.2-0.8-1.7-1.2c-1.4-1.3-2.5-2.8-3.5-4.5
			c-0.3-0.5-0.6-1.1-0.8-1.7c-0.1-0.2-0.1-0.3-0.2-0.5c0-0.1,0-0.1,0-0.2c0.1,0,0.1,0,0.1,0c0.9,0.5,1.9,1,2.7,1.6
			c0,0.2,0.1,0.3,0.1,0.5c0.2,0.9,1.4,1.3,2.1,0.6c0.1-0.1,0.2-0.2,0.3-0.3c0.1,0,0.2,0,0.3,0c1.1,0.2,2.1,0.3,3.2,0.3
			c1.5-0.1,2.9-0.4,4.3-1.1c0.1-0.1,0.2-0.1,0.4-0.2c0.1,0.1,0,0.2,0,0.2c-0.5,0.6-1,1.2-1.5,1.7
			C442.1,113.6,440.2,115.1,438.1,116.4z M445.6,111.2c-0.6,1.2-1.2,2.4-2,3.4c-0.5,0.7-1.1,1.2-1.8,1.7c-0.2,0.1-0.4,0.3-0.7,0.4
			c-0.6,0.3-1.2,0.3-1.8,0.2c-0.1,0-0.2-0.1-0.3-0.1c0-0.2,0.1-0.2,0.2-0.3c0.7-0.5,1.5-1,2.2-1.5c0.7-0.6,1.4-1.2,2.1-1.8
			c0.6-0.6,1.3-1.2,1.8-1.8c0.1-0.1,0.2-0.2,0.4-0.4C445.6,111.1,445.6,111.1,445.6,111.2z M451.6,93.8c0,0.6-0.1,1.3-0.2,1.9
			c-0.1,0.9-0.2,1.8-0.4,2.7c-0.3,1.4-0.7,2.8-1.2,4.1c-0.4,1.1-0.9,2.2-1.5,3.3c-0.6,1.3-1.6,2.3-2.9,3.1c-1.1,0.7-2.3,1.1-3.6,1.4
			c-0.7,0.1-1.4,0.2-2.2,0.2c-0.6,0-1.1,0-1.7-0.1c-0.1,0-0.3-0.1-0.4-0.1c-0.1,0-0.2-0.1-0.3-0.1c0-0.1-0.1-0.3-0.1-0.4
			c-0.3-0.9-1.3-1.2-2.1-0.6c-0.1,0.1-0.1,0.1-0.2,0.2c-0.1,0-0.2-0.1-0.3-0.1c-0.5-0.2-0.9-0.4-1.4-0.6c-0.3-0.1-0.5-0.3-0.8-0.5
			c-0.1-0.1-0.2-0.3-0.3-0.5c0-0.1,0-0.2,0-0.3l-1.4,1.9c0,0,0.1,0,0.1,0c0.2,0.1,0.3,0.2,0.4,0.4c0.3,0.6,0.6,1.1,0.9,1.7
			c0.7,1.2,1.4,2.4,2.3,3.5c0.7,0.8,1.4,1.5,2.2,2.2c0.1,0.1,0.2,0.1,0.3,0.2c-0.3,0.2-0.5,0.4-0.8,0.5c-1.4,0.7-2.9,1.3-4.5,1.8
			c-1.4,0.4-2.7,0.7-4.1,0.9c-1.9,0.3-3.7,0.3-5.6,0.2c-0.8,0-1.6-0.1-2.3-0.3c-1.2-0.2-2.4-0.4-3.5-0.8c-2.9-0.8-5.5-2.1-8-3.8
			c-1.4-1-2.7-2.1-4-3.4c-2.2-2.2-4-4.7-5.4-7.5c-0.9-1.9-1.6-3.9-2-5.9c-0.3-1.2-0.4-2.3-0.6-3.5c-0.1-0.6-0.1-1.2-0.1-1.8
			c0-0.4-0.1-0.8,0-1.2c0.1-0.8,0.1-1.7,0.1-2.5c0.1-1.3,0.4-2.6,0.7-3.9c0.5-2,1.3-4,2.2-5.8c0.1-0.2,0.2-0.5,0.4-0.7
			c0.1-0.2,0.2-0.4,0.4-0.6c0.3-0.4,0.7-0.7,1.3-0.9c0.6-0.1,1.1-0.3,1.7-0.4c0.4-0.1,0.7-0.2,1.1-0.2c0.1,0,0.2,0,0.3,0.1
			c0,0.1,0,0.1,0.1,0.2c0.3,0.9,1.5,1.2,2.3,0.4c0.2-0.2,0.4-0.3,0.6-0.2c0.5,0.2,1,0.3,1.4,0.4c0.1,0,0.2,0.1,0.3,0.1
			c0.1,0.1,0.2,0.3,0.1,0.4l1.6-0.9c-0.1,0.1-0.3,0.1-0.4,0.1c-0.1,0-0.2,0-0.4-0.1c-0.9-0.3-1.7-0.6-2.6-0.8
			c-0.2-0.1-0.4-0.2-0.5-0.4c-0.1-0.3-0.4-0.6-0.7-0.7c-0.5-0.2-1.2-0.1-1.6,0.4c-0.1,0.1-0.1,0.2-0.2,0.3c-1.1,0.2-2.2,0.3-3.3,0.5
			c0-0.1,0-0.1,0-0.2c0.6-0.9,1.3-1.8,2-2.6c0.3-0.4,0.7-0.8,1.1-1.1c0.7,0,1.4,0.2,2.1,0.4c1,0.3,2,0.8,2.9,1.3
			c0.6,0.4,1.2,0.8,1.8,1.2c0.1,0.1,0.2,0.2,0.4,0.3l0.5-0.6c-0.2,0-0.3-0.2-0.5-0.3c-0.7-0.5-1.4-0.9-2.1-1.3
			c-1.3-0.7-2.6-1.3-4-1.6c0,0-0.1,0-0.1-0.1c0,0,0,0,0,0c0-0.1,0.1-0.2,0.1-0.2c0.8-0.8,1.7-1.5,2.6-2.1c1.4-1,3-2,4.6-2.7
			c1.9-0.9,3.9-1.5,6-2c1-0.2,2-0.3,3-0.4c1.6-0.2,3.2-0.2,4.8-0.1c1.8,0.1,3.5,0.4,5.2,0.9c3.5,1,6.7,2.6,9.6,4.9
			c0.5,0.4,1,0.8,1.5,1.2c0.1,0.1,0.2,0.1,0.3,0.2c-0.1,0.1-0.1,0.1-0.2,0.2c-1.4,0.8-2.7,1.9-3.8,3c-1.1,1.1-2,2.3-3,3.6
			c-0.6,0.8-1.1,1.5-1.7,2.3c0,0.1-0.1,0.1-0.2,0.2c-0.1,0-0.2-0.1-0.2-0.2l1.4,2.3c0.1-0.1,0.1-0.2,0.2-0.2c1-1.1,1.9-2.1,2.9-3.2
			c0,0,0.1-0.1,0.1-0.1c0.1-0.1,0.2-0.1,0.4-0.1c0.2,0.1,0.4,0.2,0.7,0.2c0.8,0,1.4-0.8,1.3-1.4c0-0.1,0-0.1,0-0.2
			c-0.1-0.2,0-0.4,0.2-0.5c1.4-1.1,2.9-2.1,4.5-2.9c0.1,0,0.2-0.1,0.3-0.1c0.3,0.3,0.5,0.7,0.7,1c1.1,1.5,2,3,2.8,4.7
			c1,2.1,1.7,4.3,2.2,6.6c0.2,1.1,0.3,2.1,0.4,3.2C451.6,91.6,451.6,92.7,451.6,93.8z"/>
		<path class="st3" d="M432.2,107.1c0.1,0,0.2-0.1,0.3-0.1c0.3-0.1,0.5-0.3,0.7-0.6c0.2-0.2,0.3-0.5,0.2-0.8c0-0.2,0-0.3-0.1-0.5
			c0-0.2-0.1-0.4,0-0.6c0.5-0.5,1.1-0.9,1.7-1.3c0.1-0.1,0.2-0.1,0.3-0.2c0.5-0.2,0.8-0.6,1.1-1c0.1-0.2,0.2-0.4,0.2-0.6
			c0-0.2,0-0.3,0-0.5c0-0.4,0-0.8,0.2-1.2c-0.4-0.6-0.6-1.3-0.4-2c0-0.1-0.1-0.1-0.1-0.2c-0.1-0.2-0.1-0.3,0-0.5
			c0.3-0.7,0.6-1.3,1-1.8c0.4-0.5,0.7-0.9,1.1-1.4c0.1-0.2,0.3-0.4,0.4-0.5c0.1-0.1,0.2-0.2,0.3-0.3c0.8-0.7,1.4-1.6,1.9-2.6
			c0.1-0.3,0.2-0.6,0.3-0.9c0.1-0.4,0.3-0.9,0.4-1.3c0.1-0.4,0.2-0.9,0.2-1.3c0-0.2,0-0.3-0.4-0.4c-0.4,0.4-1,0.5-1.5,0.8
			c-0.4,0.2-0.8,0.3-1.3,0.5c-0.1-0.1-0.2-0.1-0.3-0.2c-0.1-0.1-0.2-0.3-0.2-0.4c0-0.2-0.1-0.3-0.2-0.4c-0.4-0.5-0.8-0.8-1.3-1.2
			c-0.4-0.3-0.7-0.6-0.9-1c-0.1-0.2-0.2-0.3-0.3-0.5c-0.2-0.2-0.3-0.4-0.4-0.6l-1.4-2.3c0,0,0,0,0,0l0,0l0,0c0,0-0.1-0.1-0.1-0.2
			c-0.1-0.3-0.2-0.5-0.4-0.7c-0.2-0.3-0.4-0.6-0.6-0.9c-0.2-0.2-0.2-0.5-0.1-0.7c0.1-0.2,0.2-0.5,0.2-0.8c0-0.1,0-0.2-0.1-0.3
			c-0.1-0.2-0.3-0.5-0.5-0.7c-0.1-0.1-0.2-0.2-0.4-0.2c-0.4,0.1-0.8,0-1.2,0c-0.1,0-0.2,0-0.3,0.1c-0.3,0.2-0.7,0.2-1,0.1
			c-0.7-0.1-1.5-0.3-2.2-0.5c-0.1,0-0.2-0.1-0.3-0.1c-0.1-0.1-0.2-0.1-0.4-0.1c-0.6,0-0.5-0.1-1.1,0.4c-0.1,0.2,0,0.4,0,0.6
			c0,0.2-0.1,0.3-0.3,0.3c-0.1,0-0.2,0-0.4-0.1c-0.3-0.1-0.5-0.2-0.8-0.3c-0.1,0-0.1,0-0.2-0.1c-0.2-0.1-0.4-0.2-0.4-0.6
			c-0.4-0.1-0.8-0.2-1.1-0.3c-0.3-0.1-0.5-0.2-0.8-0.3c-0.1-0.1-0.3-0.1-0.4-0.3c0-0.2,0.2-0.3,0.3-0.5c0-0.2-0.1-0.4,0-0.6
			c0-0.2,0.1-0.3,0.1-0.5c-0.1,0-0.1-0.1-0.2-0.1c-0.2,0-0.4-0.1-0.5-0.2c-0.4,0.2-0.8,0.2-1.3,0.2c-0.6,0-1.3,0-1.9,0
			c-0.2,0-0.4,0-0.7,0.1c-0.3,0.1-0.7,0.2-1,0.3c-0.6,0.3-1.2,0.2-1.7-0.2c-0.1,0-0.1-0.1-0.2-0.1c-0.2,0-0.3,0.2-0.4,0.3
			c-0.3,0.5-0.8,0.8-1.3,1c-0.1,0-0.2,0.1-0.3,0.1l-0.5,0.6c0,0.3-0.1,0.6-0.2,0.8c-0.1,0.2-0.2,0.4-0.4,0.5l0,0l0,0
			c0,0-0.1,0-0.1,0.1l-1.6,0.9c-0.1,0.1-0.2,0.2-0.3,0.3c-0.2,0.1-0.3,0.3-0.4,0.5c0,0.1-0.1,0.2-0.2,0.3c-0.3,0.2-0.5,0.5-0.7,0.8
			c-0.2,0.2-0.3,0.4-0.5,0.7c-0.1,0.1-0.2,0.3-0.2,0.5c0,0.1,0,0.2,0,0.4c0,0.1,0.1,0.2,0.1,0.3c0.1,0.2-0.1,0.4,0,0.7
			c0.1,0.2,0,0.5-0.1,0.7c-0.2,0.5-0.3,1.1-0.7,1.5c-0.1,0.1-0.1,0.2-0.1,0.3c0,0.2,0,0.3,0,0.5c0,0.2,0.1,0.4-0.1,0.7
			c0.1,0.1,0.2,0.2,0.2,0.3c0.2,0.2,0.4,0.5,0.6,0.8c0.3,0.7,0.7,1.3,1,2c0,0.1,0.1,0.2,0.3,0.3c0.5,0.4,1,0.9,1.5,1.3
			c0.2,0.1,0.3,0.3,0.5,0.4c0.1,0.1,0.3,0.2,0.4,0.2c0.1,0,0.3,0,0.4,0c0.4-0.1,0.9-0.1,1.3-0.1c0.2,0,0.3,0,0.5,0
			c0.2,0,0.4,0,0.5,0.1c0.2,0.1,0.4,0.1,0.6,0c0.1,0,0.2-0.1,0.3-0.1c0.6-0.3,1.1-0.4,1.7-0.5c0.3-0.1,0.6-0.1,0.9-0.1
			c0.3,0,0.5,0.1,0.6,0.4c0,0.1,0.1,0.2,0.1,0.3c0.1,0.1,0.1,0.3,0.2,0.4c0.1,0.1,0.2,0.2,0.4,0.2c0.2,0,0.4,0,0.6,0
			c0.2,0,0.4,0,0.6,0c0.1,0,0.2,0,0.3,0.1c0,0.1,0.1,0.1,0.1,0.1c0.3,0.2,0.3,0.5,0.2,0.8c0,0,0,0.1,0,0.1c0,0.2-0.2,0.4-0.2,0.6
			c0,0.2-0.1,0.4-0.1,0.7c-0.2,0.5,0,0.8,0.3,1.1c0.1,0.1,0.2,0.2,0.3,0.3c0.3,0.3,0.5,0.5,0.7,0.8c0.3,0.3,0.5,0.7,0.6,1.1
			c0.1,0.3,0.3,0.7,0.3,1c0,0.1,0.1,0.1,0,0.2c-0.1,0.3,0.1,0.5,0.2,0.7c0.2,0.3,0.1,0.7,0,1c0,0.1-0.1,0.1-0.1,0.2
			c-0.4,0.4-0.6,1-0.7,1.5c-0.1,0.3-0.1,0.7-0.1,1c0,0.1,0.1,0.3,0.2,0.4c0.2,0.4,0.5,0.7,0.7,1.1c0.1,0.2,0.3,0.4,0.4,0.7
			c0.1,0.1,0.2,0.3,0.1,0.4c0,0.5,0.2,0.9,0.3,1.4c0,0.1,0.1,0.2,0.1,0.3c0.2,0.3,0.4,0.5,0.6,0.8c0.2,0.3,0.4,0.5,0.6,0.8
			c0.1,0.2,0.2,0.4,0.1,0.6c0,0.1,0,0.2,0,0.3c0,0.1,0.1,0.3,0.1,0.4c0.1,0,0.2,0,0.3,0.1c0.1,0,0.2,0.1,0.4,0.1c0.1,0,0.3,0,0.4,0
			c0.3-0.1,0.7-0.1,1-0.1c0.7,0,1.4-0.2,2.1-0.4c0.4-0.1,0.7-0.3,1-0.6c0.4-0.3,0.8-0.6,1.1-1l1.4-1.9
			C432.1,107.2,432.1,107.1,432.2,107.1C432.2,107.1,432.2,107.1,432.2,107.1z"/>
		<path class="st3" d="M441.5,100.9c0-0.2-0.1-0.3-0.3-0.4c-0.2,0.5-0.6,0.9-0.9,1.2c-0.2,0.2-0.4,0.3-0.6,0.4
			c-0.1,0-0.2,0.1-0.3,0.1c-0.3,0.1-0.4,0.3-0.5,0.6c0,0.1,0,0.3,0,0.4c0.1,0.3,0.1,0.6,0,0.9c0,0.2-0.1,0.3-0.2,0.5
			c-0.1,0.1-0.1,0.3-0.1,0.5c0.1,0.4,0.1,0.8,0.3,1.2c0.4,0.3,0.8,0.1,1.2,0.2c0.1-0.2,0.2-0.4,0.3-0.5c0-0.1,0.1-0.2,0.1-0.4
			c0-0.1,0-0.1,0.1-0.2c0.2-0.5,0.2-1,0.5-1.5c0,0,0-0.1,0-0.1c0.1-0.6,0.3-1.2,0.6-1.7c0-0.1,0.1-0.2,0-0.3
			C441.6,101.5,441.5,101.2,441.5,100.9z"/>
	</g>
</g>
<g>
	<g>
		<g>
			<rect x="141.6" y="536.6" class="st4" width="68.1" height="23.2"/>
			<text transform="matrix(1 0 0 1 147.7712 554.2655)" class="st20 st21">Where</text>
		</g>
		<text transform="matrix(1 0 0 1 114.6735 581.5155)" class="st3 st22 st23">School Auditorium</text>
		<text transform="matrix(1 0 0 1 116.6818 596.953)"><tspan x="0" y="0" class="st3 st24 st25">Federal University Lokoja,</tspan><tspan x="35.1" y="12.6" class="st3 st24 st25">Kogi State</tspan></text>
	</g>
	<g>
		<g>
			<rect x="335.8" y="536.6" class="st4" width="60.3" height="23.2"/>
			<text transform="matrix(1 0 0 1 340.7082 554.2655)" class="st20 st21">When</text>
		</g>
		<text transform="matrix(1 0 0 1 308.6447 581.5155)"><tspan x="0" y="0" class="st3 st22 st26">Thur, 9th May 2019</tspan><tspan x="30.6" y="18.1" class="st3 st22 st26">10:00AM</tspan></text>
	</g>
</g>
<g>
	<text transform="matrix(1 0 0 1 521.8752 596.7703)" class="st2 st27 st28 st29">FREE SNACKS + SWAGS</text>
	<text transform="matrix(1 0 0 1 506.56 564.5924)"><tspan x="0" y="0" class="st3 st18 st30">RSVP: </tspan><tspan x="62.4" y="0" class="st3 st27 st30">https://bit.ly/icaf-meetup</tspan></text>
</g>
<g>
	<text transform="matrix(1 0 0 1 722.9666 677.7175)" class="st7 st27 st31">Powered by:</text>
	<g>
		<path class="st12" d="M859.1,662.6c-5.9,0-10.7,4.8-10.7,10.7c0,4.7,3.1,8.7,7.3,10.1c0.5,0.1,0.7-0.2,0.7-0.5c0-0.3,0-1.1,0-2
			c-3,0.6-3.6-1.3-3.6-1.3c-0.5-1.2-1.2-1.6-1.2-1.6c-1-0.7,0.1-0.6,0.1-0.6c1.1,0.1,1.6,1.1,1.6,1.1c1,1.6,2.5,1.2,3.1,0.9
			c0.1-0.7,0.4-1.2,0.7-1.4c-2.4-0.3-4.9-1.2-4.9-5.3c0-1.2,0.4-2.1,1.1-2.9c-0.1-0.3-0.5-1.4,0.1-2.8c0,0,0.9-0.3,2.9,1.1
			c0.9-0.2,1.8-0.4,2.7-0.4c0.9,0,1.8,0.1,2.7,0.4c2-1.4,2.9-1.1,2.9-1.1c0.6,1.5,0.2,2.6,0.1,2.8c0.7,0.7,1.1,1.7,1.1,2.9
			c0,4.1-2.5,5-4.9,5.3c0.4,0.3,0.7,1,0.7,2c0,1.4,0,2.6,0,2.9c0,0.3,0.2,0.6,0.7,0.5c4.2-1.4,7.3-5.4,7.3-10.1
			C869.8,667.4,865,662.6,859.1,662.6z"/>
		<path class="st3" d="M852.5,678c0,0.1-0.1,0.1-0.2,0c-0.1,0-0.1-0.1-0.1-0.2c0-0.1,0.1-0.1,0.2,0
			C852.5,677.8,852.5,677.9,852.5,678L852.5,678z M852.3,677.9"/>
		<path class="st3" d="M852.9,678.4c-0.1,0-0.2,0-0.2,0c-0.1-0.1-0.1-0.2,0-0.2c0.1,0,0.1,0,0.2,0
			C852.9,678.3,853,678.4,852.9,678.4L852.9,678.4z M852.8,678.3"/>
		<path class="st3" d="M853.3,679c-0.1,0-0.2,0-0.2-0.1c-0.1-0.1-0.1-0.2,0-0.3c0.1,0,0.2,0,0.2,0.1
			C853.4,678.9,853.4,679,853.3,679L853.3,679z M853.3,679"/>
		<path class="st3" d="M853.9,679.6c-0.1,0.1-0.2,0-0.3,0c-0.1-0.1-0.1-0.2-0.1-0.3c0.1-0.1,0.2,0,0.3,0
			C853.9,679.5,854,679.6,853.9,679.6L853.9,679.6z M853.9,679.6"/>
		<path class="st3" d="M854.7,680c0,0.1-0.1,0.1-0.3,0.1c-0.1,0-0.2-0.1-0.2-0.2c0-0.1,0.1-0.1,0.3-0.1
			C854.6,679.8,854.7,679.9,854.7,680L854.7,680z M854.7,680"/>
		<path class="st3" d="M855.6,680c0,0.1-0.1,0.2-0.2,0.2c-0.1,0-0.2-0.1-0.2-0.2c0-0.1,0.1-0.2,0.2-0.2
			C855.5,679.9,855.6,680,855.6,680L855.6,680z M855.6,680"/>
		<path class="st3" d="M856.4,679.9c0,0.1-0.1,0.2-0.2,0.2c-0.1,0-0.2,0-0.3-0.1c0-0.1,0.1-0.2,0.2-0.2
			C856.3,679.8,856.4,679.8,856.4,679.9L856.4,679.9z M856.4,679.9"/>
	</g>
	<g>
		<g>
			<text transform="matrix(1 0 0 1 901.8221 677.8503)" class="st3 st32 st33 st34">INGRESSIVE</text>
		</g>
		<g>
			<path class="st3" d="M891.4,668.9L891.4,668.9C891.4,668.9,891.4,668.9,891.4,668.9z"/>
			<path class="st3" d="M890.9,678.4L890.9,678.4C890.9,678.4,890.9,678.4,890.9,678.4z"/>
			<path class="st3" d="M898.3,672.8c0-0.4,0-0.7-0.1-1.1c0-0.3-0.1-0.7-0.2-1c-0.1-0.5-0.3-1.1-0.5-1.6c-0.1-0.2-0.1-0.4-0.1-0.5
				c0-0.2,0-0.4,0-0.6c0-0.3,0-0.6,0-1c-0.1-0.3-0.2-0.6-0.4-0.7c-0.2-0.1-0.3-0.2-0.4-0.4c-0.3-0.4-0.8-0.6-1.3-0.5
				c0,0-0.1,0-0.2,0c-0.1-0.1-0.1-0.1-0.2-0.1c-0.4-0.3-0.8-0.7-1.2-1c-1-0.7-2.1-1.2-3.3-1.5c-0.7-0.2-1.4-0.2-2-0.3
				c-0.6,0-1.1,0-1.7,0.1c-0.4,0-0.7,0.1-1.1,0.2c-0.6,0.1-1.2,0.3-1.8,0.6c-0.9,0.4-1.8,1-2.6,1.6c-0.2,0.1-0.3,0.3-0.5,0.4
				c-0.1,0.1-0.3,0.2-0.4,0.2c-0.5,0-0.9,0.2-1.3,0.6c-0.3,0.2-0.5,0.5-0.6,0.9c-0.4,0.8-0.7,1.7-0.8,2.7c0,0.3-0.1,0.5-0.1,0.8
				c0,0.4-0.1,0.8-0.1,1.2c0,0.6,0,1.1,0,1.7c0,0.3,0.1,0.5,0.1,0.8c0.1,0.4,0.1,0.7,0.2,1.1c0.1,0.6,0.3,1.2,0.6,1.8
				c0.5,1.1,1.1,2.1,1.9,3c0.5,0.6,1.1,1.1,1.8,1.5c0.6,0.4,1.3,0.8,1.9,1c0.6,0.2,1.2,0.4,1.8,0.6c0.3,0.1,0.6,0.1,1,0.2
				c0.2,0,0.5,0.1,0.7,0.1c0.6,0,1.1,0,1.7-0.1c0.4-0.1,0.8-0.1,1.2-0.2c0.7-0.2,1.4-0.4,2.1-0.8c0.1-0.1,0.2-0.1,0.3-0.1
				c0.2-0.1,0.4-0.1,0.7-0.1c0.3,0.1,0.6,0,0.9-0.1c0.2-0.1,0.4-0.3,0.6-0.4c0.3-0.3,0.6-0.6,0.8-1c0.3-0.5,0.5-0.9,0.7-1.4
				c0.1-0.4,0.3-0.7,0.5-1.1c0.3-0.5,0.6-1.1,0.8-1.7c0.2-0.6,0.4-1.2,0.5-1.9c0-0.3,0.1-0.5,0.1-0.8
				C898.3,673.5,898.3,673.2,898.3,672.8z M896.5,666.5c0.1,0.1,0.2,0.3,0.2,0.5c0.1,0.2,0.1,0.3,0.1,0.5c0,0.1,0.1,0.2,0,0.3
				c0,0,0,0,0,0c-0.3-0.4-0.6-0.8-0.8-1.2C896.2,666.5,896.3,666.5,896.5,666.5z M895.4,665.7c0.1,0,0.2,0,0.3,0
				c0.3,0.1,0.5,0.2,0.6,0.5c-0.1,0-0.3,0.1-0.4,0.1c0,0-0.1,0-0.1,0C895.6,666.1,895.5,665.9,895.4,665.7
				C895.3,665.7,895.3,665.7,895.4,665.7z M894.9,665.8c0,0,0.1,0,0.1,0c0.2,0.2,0.4,0.3,0.6,0.5c0,0,0,0,0,0
				c-0.6,0.4-1.2,0.8-1.8,1.2c-0.1,0-0.2,0-0.3,0c-0.3,0-0.5,0.3-0.5,0.5c0,0,0,0.1,0,0.1c0,0,0,0,0,0c-0.1,0.1-0.2,0.2-0.3,0.3
				c-0.3,0.3-0.6,0.6-0.9,0.8c-0.1,0-0.1,0-0.1-0.1c0-0.1,0-0.1,0-0.2c0,0,0.1-0.1,0.1-0.1c0.3-0.5,0.7-1,1.1-1.5
				c0.4-0.5,0.8-0.9,1.3-1.3c0.2-0.1,0.3-0.2,0.5-0.3C894.8,665.8,894.8,665.8,894.9,665.8z M878.2,668.4c0.1-0.5,0.3-0.9,0.5-1.4
				c0.2-0.3,0.4-0.6,0.7-0.8c0.2-0.1,0.4-0.2,0.6-0.2c0.1,0,0.1,0,0.2,0c-0.7,0.9-1.4,1.7-2.1,2.6
				C878.1,668.5,878.1,668.4,878.2,668.4z M893.1,681.8C893,681.8,893,681.8,893.1,681.8c-0.3-0.1-0.5-0.2-0.7-0.4
				c-0.5-0.5-0.9-1-1.3-1.6c-0.1-0.2-0.2-0.4-0.3-0.6c0-0.1,0-0.1-0.1-0.2c0,0,0,0,0-0.1c0,0,0,0,0,0c0.3,0.2,0.7,0.4,1,0.6
				c0,0.1,0,0.1,0,0.2c0.1,0.3,0.5,0.5,0.8,0.2c0,0,0.1-0.1,0.1-0.1c0,0,0.1,0,0.1,0c0.4,0.1,0.8,0.1,1.2,0.1c0.5,0,1.1-0.2,1.6-0.4
				c0,0,0.1,0,0.1-0.1c0,0,0,0.1,0,0.1c-0.2,0.2-0.4,0.4-0.5,0.6C894.5,680.7,893.8,681.3,893.1,681.8z M895.8,679.8
				c-0.2,0.4-0.4,0.9-0.7,1.3c-0.2,0.2-0.4,0.4-0.7,0.6c-0.1,0.1-0.2,0.1-0.2,0.1c-0.2,0.1-0.4,0.1-0.7,0.1c0,0-0.1,0-0.1,0
				c0-0.1,0.1-0.1,0.1-0.1c0.3-0.2,0.5-0.4,0.8-0.6c0.3-0.2,0.5-0.4,0.8-0.7c0.2-0.2,0.5-0.4,0.7-0.7
				C895.7,679.9,895.8,679.8,895.8,679.8C895.8,679.8,895.8,679.8,895.8,679.8z M898,673.5c0,0.2,0,0.5-0.1,0.7c0,0.3-0.1,0.7-0.2,1
				c-0.1,0.5-0.3,1-0.5,1.5c-0.2,0.4-0.3,0.8-0.5,1.2c-0.2,0.5-0.6,0.9-1,1.1c-0.4,0.2-0.8,0.4-1.3,0.5c-0.3,0.1-0.5,0.1-0.8,0.1
				c-0.2,0-0.4,0-0.6-0.1c0,0-0.1,0-0.1,0c0,0-0.1,0-0.1,0c0,0,0-0.1-0.1-0.1c-0.1-0.3-0.5-0.4-0.8-0.2c0,0,0,0-0.1,0.1
				c0,0-0.1,0-0.1,0c-0.2-0.1-0.3-0.2-0.5-0.2c-0.1-0.1-0.2-0.1-0.3-0.2c-0.1,0-0.1-0.1-0.1-0.2c0,0,0-0.1,0-0.1l-0.5,0.7
				c0,0,0,0,0,0c0.1,0,0.1,0.1,0.1,0.1c0.1,0.2,0.2,0.4,0.3,0.6c0.3,0.4,0.5,0.9,0.9,1.3c0.2,0.3,0.5,0.6,0.8,0.8c0,0,0.1,0,0.1,0.1
				c-0.1,0.1-0.2,0.1-0.3,0.2c-0.5,0.3-1.1,0.5-1.6,0.7c-0.5,0.1-1,0.2-1.5,0.3c-0.7,0.1-1.4,0.1-2.1,0.1c-0.3,0-0.6-0.1-0.9-0.1
				c-0.4-0.1-0.9-0.2-1.3-0.3c-1-0.3-2-0.8-2.9-1.4c-0.5-0.4-1-0.8-1.5-1.2c-0.8-0.8-1.5-1.7-2-2.8c-0.3-0.7-0.6-1.4-0.7-2.2
				c-0.1-0.4-0.2-0.8-0.2-1.3c0-0.2,0-0.4,0-0.6c0-0.1,0-0.3,0-0.4c0-0.3,0-0.6,0.1-0.9c0.1-0.5,0.1-1,0.3-1.4
				c0.2-0.7,0.5-1.5,0.8-2.1c0-0.1,0.1-0.2,0.1-0.3c0-0.1,0.1-0.1,0.1-0.2c0.1-0.2,0.3-0.3,0.5-0.3c0.2-0.1,0.4-0.1,0.6-0.1
				c0.1,0,0.3-0.1,0.4-0.1c0,0,0.1,0,0.1,0c0,0,0,0,0,0.1c0.1,0.3,0.6,0.4,0.8,0.1c0.1-0.1,0.1-0.1,0.2-0.1c0.2,0.1,0.4,0.1,0.5,0.2
				c0,0,0.1,0,0.1,0.1c0.1,0,0.1,0.1,0,0.1l0.6-0.3c0,0-0.1,0-0.2,0c0,0-0.1,0-0.1,0c-0.3-0.1-0.6-0.2-0.9-0.3
				c-0.1,0-0.1-0.1-0.2-0.2c0-0.1-0.1-0.2-0.3-0.3c-0.2-0.1-0.4,0-0.6,0.1c0,0-0.1,0.1-0.1,0.1c-0.4,0.1-0.8,0.1-1.2,0.2
				c0,0,0,0,0-0.1c0.2-0.3,0.5-0.6,0.7-0.9c0.1-0.1,0.3-0.3,0.4-0.4c0.3,0,0.5,0.1,0.8,0.2c0.4,0.1,0.7,0.3,1,0.5
				c0.2,0.1,0.4,0.3,0.7,0.4c0,0,0.1,0.1,0.1,0.1l0.2-0.2c-0.1,0-0.1-0.1-0.2-0.1c-0.3-0.2-0.5-0.3-0.8-0.5c-0.5-0.3-1-0.5-1.5-0.6
				c0,0,0,0-0.1,0c0,0,0,0,0,0c0,0,0-0.1,0.1-0.1c0.3-0.3,0.6-0.5,0.9-0.8c0.5-0.4,1.1-0.7,1.7-1c0.7-0.3,1.4-0.6,2.2-0.7
				c0.4-0.1,0.7-0.1,1.1-0.2c0.6-0.1,1.2-0.1,1.8,0c0.6,0,1.3,0.2,1.9,0.3c1.3,0.4,2.5,1,3.5,1.8c0.2,0.1,0.4,0.3,0.6,0.5
				c0,0,0.1,0.1,0.1,0.1c0,0-0.1,0-0.1,0.1c-0.5,0.3-1,0.7-1.4,1.1c-0.4,0.4-0.7,0.9-1.1,1.3c-0.2,0.3-0.4,0.6-0.6,0.8
				c0,0,0,0-0.1,0.1c0,0-0.1,0-0.1-0.1l0.5,0.9c0,0,0-0.1,0.1-0.1c0.4-0.4,0.7-0.8,1.1-1.2c0,0,0,0,0,0c0,0,0.1-0.1,0.1,0
				c0.1,0,0.2,0.1,0.3,0.1c0.3,0,0.5-0.3,0.5-0.5c0,0,0-0.1,0-0.1c0-0.1,0-0.1,0.1-0.2c0.5-0.4,1-0.8,1.6-1.1c0,0,0.1,0,0.1,0
				c0.1,0.1,0.2,0.2,0.3,0.4c0.4,0.5,0.7,1.1,1,1.7c0.4,0.8,0.6,1.6,0.8,2.4c0.1,0.4,0.1,0.8,0.2,1.2C898,672.7,898,673.1,898,673.5
				z"/>
			<path class="st3" d="M890.9,678.3c0,0,0.1,0,0.1,0c0.1,0,0.2-0.1,0.3-0.2c0.1-0.1,0.1-0.2,0.1-0.3c0-0.1,0-0.1,0-0.2
				c0-0.1,0-0.2,0-0.2c0.2-0.2,0.4-0.3,0.6-0.5c0,0,0.1,0,0.1-0.1c0.2-0.1,0.3-0.2,0.4-0.4c0-0.1,0.1-0.1,0.1-0.2c0-0.1,0-0.1,0-0.2
				c0-0.1,0-0.3,0.1-0.4c-0.1-0.2-0.2-0.5-0.2-0.7c0,0,0-0.1-0.1-0.1c0-0.1,0-0.1,0-0.2c0.1-0.2,0.2-0.5,0.4-0.7
				c0.1-0.2,0.3-0.3,0.4-0.5c0.1-0.1,0.1-0.1,0.2-0.2c0,0,0.1-0.1,0.1-0.1c0.3-0.3,0.5-0.6,0.7-0.9c0.1-0.1,0.1-0.2,0.1-0.3
				c0.1-0.2,0.1-0.3,0.1-0.5c0-0.2,0.1-0.3,0.1-0.5c0-0.1,0-0.1-0.1-0.1c-0.1,0.2-0.4,0.2-0.6,0.3c-0.1,0.1-0.3,0.1-0.5,0.2
				c0,0-0.1-0.1-0.1-0.1c-0.1,0-0.1-0.1-0.1-0.2c0-0.1,0-0.1-0.1-0.1c-0.1-0.2-0.3-0.3-0.5-0.4c-0.1-0.1-0.2-0.2-0.3-0.4
				c0-0.1-0.1-0.1-0.1-0.2c-0.1-0.1-0.1-0.1-0.2-0.2l-0.5-0.9c0,0,0,0,0,0l0,0l0,0c0,0,0,0,0-0.1c0-0.1-0.1-0.2-0.1-0.2
				c-0.1-0.1-0.1-0.2-0.2-0.3c-0.1-0.1-0.1-0.2,0-0.3c0-0.1,0.1-0.2,0.1-0.3c0,0,0-0.1,0-0.1c-0.1-0.1-0.1-0.2-0.2-0.3
				c0-0.1-0.1-0.1-0.1-0.1c-0.2,0-0.3,0-0.5,0c0,0-0.1,0-0.1,0c-0.1,0.1-0.2,0.1-0.4,0c-0.3,0-0.5-0.1-0.8-0.2c0,0-0.1,0-0.1,0
				c0,0-0.1,0-0.1,0c-0.2,0-0.2,0-0.4,0.2c0,0.1,0,0.1,0,0.2c0,0.1,0,0.1-0.1,0.1c0,0-0.1,0-0.1,0c-0.1,0-0.2-0.1-0.3-0.1
				c0,0,0,0-0.1,0c-0.1,0-0.2-0.1-0.2-0.2c-0.2,0-0.3-0.1-0.4-0.1c-0.1,0-0.2-0.1-0.3-0.1c-0.1,0-0.1,0-0.1-0.1
				c0-0.1,0.1-0.1,0.1-0.2c0-0.1,0-0.1,0-0.2c0-0.1,0-0.1,0-0.2c0,0,0,0-0.1,0c-0.1,0-0.1,0-0.2-0.1c-0.1,0.1-0.3,0.1-0.5,0.1
				c-0.2,0-0.5,0-0.7,0c-0.1,0-0.2,0-0.2,0c-0.1,0-0.2,0.1-0.4,0.1c-0.2,0.1-0.4,0.1-0.6-0.1c0,0,0,0-0.1,0c-0.1,0-0.1,0.1-0.1,0.1
				c-0.1,0.2-0.3,0.3-0.5,0.4c0,0-0.1,0-0.1,0.1l-0.2,0.2c0,0.1,0,0.2-0.1,0.3c0,0.1-0.1,0.1-0.1,0.2l0,0l0,0c0,0,0,0,0,0l-0.6,0.3
				c0,0-0.1,0.1-0.1,0.1c-0.1,0.1-0.1,0.1-0.1,0.2c0,0,0,0.1-0.1,0.1c-0.1,0.1-0.2,0.2-0.2,0.3c-0.1,0.1-0.1,0.2-0.2,0.2
				c0,0.1-0.1,0.1-0.1,0.2c0,0,0,0.1,0,0.1c0,0,0,0.1,0,0.1c0,0.1-0.1,0.2,0,0.2c0,0.1,0,0.2,0,0.2c-0.1,0.2-0.1,0.4-0.2,0.6
				c0,0,0,0.1,0,0.1c0,0.1,0,0.1,0,0.2c0,0.1,0,0.2,0,0.2c0,0,0.1,0.1,0.1,0.1c0.1,0.1,0.2,0.2,0.2,0.3c0.1,0.2,0.3,0.5,0.4,0.7
				c0,0,0.1,0.1,0.1,0.1c0.2,0.1,0.4,0.3,0.5,0.5c0.1,0.1,0.1,0.1,0.2,0.2c0,0,0.1,0.1,0.2,0.1c0.1,0,0.1,0,0.2,0c0.2,0,0.3,0,0.5,0
				c0.1,0,0.1,0,0.2,0c0.1,0,0.1,0,0.2,0c0.1,0,0.1,0,0.2,0c0,0,0.1,0,0.1,0c0.2-0.1,0.4-0.1,0.6-0.2c0.1,0,0.2,0,0.3,0
				c0.1,0,0.2,0.1,0.2,0.1c0,0,0,0.1,0,0.1c0,0,0,0.1,0.1,0.1c0,0.1,0.1,0.1,0.1,0.1c0.1,0,0.1,0,0.2,0c0.1,0,0.1,0,0.2,0
				c0,0,0.1,0,0.1,0c0,0,0,0,0.1,0.1c0.1,0.1,0.1,0.2,0.1,0.3c0,0,0,0,0,0c0,0.1-0.1,0.1-0.1,0.2c0,0.1,0,0.2,0,0.2
				c-0.1,0.2,0,0.3,0.1,0.4c0,0,0.1,0.1,0.1,0.1c0.1,0.1,0.2,0.2,0.3,0.3c0.1,0.1,0.2,0.2,0.2,0.4c0,0.1,0.1,0.2,0.1,0.4
				c0,0,0,0.1,0,0.1c0,0.1,0,0.2,0.1,0.3c0.1,0.1,0,0.2,0,0.4c0,0,0,0,0,0.1c-0.1,0.2-0.2,0.4-0.3,0.6c0,0.1,0,0.2,0,0.4
				c0,0.1,0,0.1,0.1,0.1c0.1,0.1,0.2,0.3,0.3,0.4c0.1,0.1,0.1,0.2,0.1,0.2c0,0.1,0.1,0.1,0.1,0.2c0,0.2,0.1,0.3,0.1,0.5
				c0,0,0,0.1,0.1,0.1c0.1,0.1,0.1,0.2,0.2,0.3c0.1,0.1,0.1,0.2,0.2,0.3c0,0.1,0.1,0.1,0,0.2c0,0,0,0.1,0,0.1c0,0,0,0.1,0,0.2
				c0,0,0.1,0,0.1,0c0,0,0.1,0,0.1,0c0.1,0,0.1,0,0.2,0c0.1,0,0.2,0,0.4,0c0.3,0,0.5-0.1,0.8-0.1c0.1,0,0.3-0.1,0.4-0.2
				c0.1-0.1,0.3-0.2,0.4-0.4L890.9,678.3C890.9,678.4,890.9,678.4,890.9,678.3C890.9,678.3,890.9,678.3,890.9,678.3z"/>
			<path class="st3" d="M894.3,676.1c0-0.1-0.1-0.1-0.1-0.1c-0.1,0.2-0.2,0.3-0.3,0.5c-0.1,0.1-0.1,0.1-0.2,0.2c0,0-0.1,0-0.1,0
				c-0.1,0-0.2,0.1-0.2,0.2c0,0.1,0,0.1,0,0.2c0,0.1,0,0.2,0,0.3c0,0.1,0,0.1-0.1,0.2c0,0.1,0,0.1,0,0.2c0,0.1,0.1,0.3,0.1,0.4
				c0.1,0.1,0.3,0.1,0.4,0.1c0-0.1,0.1-0.1,0.1-0.2c0,0,0-0.1,0-0.1c0,0,0,0,0-0.1c0.1-0.2,0.1-0.4,0.2-0.5c0,0,0,0,0,0
				c0-0.2,0.1-0.4,0.2-0.6c0,0,0-0.1,0-0.1C894.4,676.3,894.3,676.2,894.3,676.1z"/>
		</g>
	</g>
	<g>
		<path id="path0_fill_1_" class="st13" d="M830.1,683.4c1.9,0,3.5-1.6,3.5-3.5v-3.5h-3.5c-1.9,0-3.5,1.6-3.5,3.5
			S828.1,683.4,830.1,683.4z"/>
		<path id="path1_fill_3_" class="st14" d="M826.6,673c0-1.9,1.6-3.5,3.5-3.5h3.5v6.9h-3.5C828.1,676.5,826.6,675,826.6,673z"/>
		<path id="path1_fill_2_" class="st15" d="M826.6,666.1c0-1.9,1.6-3.5,3.5-3.5h3.5v6.9h-3.5C828.1,669.6,826.6,668,826.6,666.1z"/>
		<path id="path2_fill_1_" class="st16" d="M833.5,662.6h3.5c1.9,0,3.5,1.6,3.5,3.5s-1.6,3.5-3.5,3.5h-3.5V662.6z"/>
		<path id="path3_fill_1_" class="st17" d="M840.5,673c0,1.9-1.6,3.5-3.5,3.5c-1.9,0-3.5-1.6-3.5-3.5c0-1.9,1.6-3.5,3.5-3.5
			C838.9,669.6,840.5,671.1,840.5,673z"/>
	</g>
</g>
<g>
	<circle class="st3" cx="181.7" cy="384.7" r="69.3"/>
	<circle class="st3" cx="370.9" cy="384.7" r="69.3"/>
	<circle class="st3" cx="560.1" cy="384.7" r="69.3"/>
	<text transform="matrix(1 0 0 1 124.8117 479.0447)" class="st3 st35 st36">Speaker 1</text>
	<text transform="matrix(1 0 0 1 317.4644 479.0447)" class="st3 st35 st36">Speaker 1</text>
	<text transform="matrix(1 0 0 1 508.1188 479.0447)" class="st3 st35 st36">Speaker 1</text>
</g>
</svg>
